<svg width="32" height="32" viewBox="0 0 32 32" fill="none" xmlns="http://www.w3.org/2000/svg">
<path fill-rule="evenodd" clip-rule="evenodd" d="M20.6371 8.9972C21.3674 8.9972 22.0813 8.79201 22.6886 8.40758C23.2959 8.02315 23.7692 7.47674 24.0487 6.83746C24.3281 6.19817 24.4013 5.49472 24.2588 4.81606C24.1163 4.1374 23.7646 3.51401 23.2482 3.02472C22.7317 2.53543 22.0738 2.20222 21.3575 2.06723C20.6412 1.93223 19.8987 2.00152 19.2239 2.26632C18.5492 2.53112 17.9725 2.97954 17.5667 3.55488C17.1609 4.13022 16.9444 4.80664 16.9444 5.4986C16.9444 6.42649 17.3334 7.31637 18.0259 7.97248C18.7185 8.6286 19.6577 8.9972 20.6371 8.9972ZM20.6371 3.7493C21.0022 3.7493 21.3592 3.8519 21.6628 4.04411C21.9665 4.23633 22.2031 4.50953 22.3429 4.82917C22.4826 5.14882 22.5192 5.50054 22.4479 5.83987C22.3767 6.1792 22.2008 6.4909 21.9426 6.73554C21.6844 6.98019 21.3554 7.14679 20.9973 7.21429C20.6391 7.28178 20.2679 7.24714 19.9305 7.11474C19.5931 6.98234 19.3048 6.75813 19.1019 6.47046C18.899 6.18279 18.7907 5.84458 18.7907 5.4986C18.7907 5.03466 18.9852 4.58972 19.3315 4.26166C19.6778 3.9336 20.1474 3.7493 20.6371 3.7493ZM25.2531 28.2398H22.1051L20.0556 24.7412C19.9767 24.6151 19.8656 24.5098 19.7325 24.4351C19.6303 24.3277 19.5015 24.246 19.3578 24.1973C19.214 24.1487 19.0598 24.1346 18.9088 24.1562C18.7579 24.1779 18.615 24.2347 18.4929 24.3215C18.3709 24.4083 18.2734 24.5225 18.2093 24.6537C17.7854 25.5196 17.1537 26.2796 16.3647 26.873C15.5756 27.4665 14.6511 27.8769 13.6648 28.0716C12.6785 28.2662 11.6579 28.2397 10.6844 27.9941C9.71086 27.7486 8.81142 27.2908 8.05787 26.6573C7.30433 26.0238 6.71755 25.2321 6.34439 24.3455C5.97123 23.4589 5.82203 22.5019 5.90869 21.551C5.99536 20.6 6.31549 19.6815 6.84353 18.8686C7.37157 18.0557 8.09289 17.3711 8.9499 16.8693C9.07524 16.8239 9.18863 16.7532 9.28217 16.6621C9.37571 16.5709 9.44715 16.4615 9.49152 16.3415C9.53588 16.2215 9.55211 16.0938 9.53906 15.9673C9.52602 15.8408 9.48401 15.7185 9.41598 15.6089C9.34794 15.4993 9.25551 15.4051 9.14512 15.3328C9.03473 15.2605 8.90903 15.2119 8.77679 15.1904C8.64455 15.1688 8.50893 15.1748 8.37939 15.208C8.24985 15.2412 8.1295 15.3007 8.02673 15.3824C6.96676 15.9864 6.06248 16.8069 5.37987 17.7841C4.69726 18.7613 4.25356 19.8706 4.08113 21.0311C3.9087 22.1915 4.01191 23.3737 4.38321 24.4915C4.75451 25.6093 5.38454 26.6345 6.22733 27.4922C7.07011 28.3499 8.10438 29.0185 9.25467 29.4493C10.405 29.88 11.6422 30.062 12.8762 29.9819C14.1102 29.9018 15.3097 29.5617 16.3873 28.9865C17.4649 28.4112 18.3933 27.6152 19.1048 26.6567L20.7849 29.5168C20.8592 29.653 20.9699 29.7683 21.106 29.8512C21.2421 29.9341 21.3988 29.9816 21.5604 29.9891H25.2531C25.4979 29.9891 25.7327 29.8969 25.9059 29.7329C26.079 29.5689 26.1763 29.3464 26.1763 29.1144C26.1763 28.8825 26.079 28.66 25.9059 28.496C25.7327 28.3319 25.4979 28.2398 25.2531 28.2398ZM24.2282 17.7438L27.5885 23.3328C27.9586 23.9127 28.0852 24.6032 27.9433 25.2674C27.8014 25.9316 27.4013 26.521 26.8223 26.9189C26.5058 27.1233 26.148 27.2633 25.7715 27.33C25.395 27.3967 25.008 27.3887 24.635 27.3065C24.2619 27.2243 23.9109 27.0697 23.6041 26.8524C23.2973 26.6352 23.0414 26.36 22.8526 26.0442L19.9539 21.2424H15.5596C14.9292 21.2473 14.308 21.0993 13.7551 20.8124C13.2023 20.5254 12.7361 20.1092 12.4011 19.6033C12.0661 19.0973 11.8733 18.5186 11.8412 17.9221C11.8091 17.3256 11.9387 16.7313 12.2177 16.1957L13.8979 13.0469L11.6269 12.0236L9.31896 13.0294C8.97975 13.1727 8.6136 13.2498 8.2423 13.2562C7.87099 13.2626 7.50212 13.1982 7.15761 13.0668C6.8131 12.9355 6.5 12.7398 6.23693 12.4915C5.97386 12.2431 5.76619 11.9472 5.62628 11.6213C5.37161 10.9701 5.38943 10.2514 5.67607 9.61227C5.96271 8.97318 6.49647 8.46214 7.16797 8.18388L9.93749 7.00311C10.4158 6.79663 10.9351 6.68928 11.4607 6.68823C11.9516 6.69114 12.4373 6.78318 12.8916 6.95937L18.6614 9.23346C19.1426 9.42336 19.5758 9.70761 19.9327 10.0675C20.2896 10.4274 20.562 10.8548 20.732 11.3216C20.9021 11.7884 20.9659 12.284 20.9193 12.7758C20.8727 13.2677 20.7167 13.7446 20.4616 14.1752L19.3908 15.9945H21.0248C21.6739 15.9936 22.3118 16.1548 22.8742 16.4619C23.4366 16.769 23.9036 17.2112 24.2282 17.7438ZM25.2529 25.6156C25.4285 25.6084 25.5982 25.5537 25.7422 25.4582H25.7791C25.9697 25.3065 26.0962 25.0946 26.1352 24.8617C26.1742 24.6287 26.1231 24.3902 25.9914 24.19L22.6311 18.6185C22.4684 18.3515 22.2342 18.13 21.9521 17.9764C21.67 17.8228 21.3501 17.7426 21.0248 17.7438H19.3908C19.0653 17.7466 18.7448 17.6678 18.4618 17.5154C18.1788 17.363 17.9433 17.1424 17.7793 16.876C17.6153 16.6096 17.5285 16.3069 17.5278 15.9984C17.5271 15.69 17.6124 15.3869 17.7752 15.1199L18.9292 13.3356C19.0553 13.1191 19.1315 12.8797 19.1528 12.6332C19.1742 12.3867 19.1401 12.1388 19.0528 11.9057C18.9656 11.6726 18.8272 11.4597 18.6467 11.281C18.4663 11.1023 18.2479 10.9619 18.006 10.8691L12.2362 8.59497C12.0032 8.49865 11.7518 8.44893 11.4976 8.44893C11.2435 8.44893 10.9921 8.49865 10.7591 8.59497L7.9896 9.77575C7.75533 9.86746 7.56478 10.0375 7.45416 10.2536C7.34353 10.4696 7.32053 10.7167 7.38953 10.9478C7.45794 11.1105 7.57636 11.25 7.72943 11.3483C7.88251 11.4465 8.06319 11.499 8.24808 11.4988C8.38182 11.4995 8.51412 11.4726 8.63582 11.4201L10.8976 10.4055C11.1417 10.3025 11.4058 10.2488 11.673 10.2481C11.9474 10.2469 12.2187 10.3036 12.467 10.4142L14.7657 11.4813C14.9824 11.5847 15.1754 11.7275 15.3338 11.9016C15.4922 12.0757 15.6129 12.2776 15.6888 12.4959C15.8364 12.9291 15.8 13.3997 15.5873 13.8079L13.9164 16.9566C13.7747 17.2229 13.7073 17.5191 13.7205 17.817C13.7336 18.115 13.827 18.4048 13.9916 18.6589C14.1563 18.913 14.3867 19.1231 14.6612 19.2691C14.9356 19.4151 15.2449 19.4922 15.5596 19.4931H19.9539C20.2792 19.4919 20.5991 19.5721 20.8812 19.7257C21.1633 19.8793 21.3975 20.1008 21.5602 20.3678L24.4497 25.1783C24.5311 25.3118 24.6482 25.4225 24.7892 25.4993C24.9303 25.5761 25.0902 25.6163 25.2529 25.6156Z" fill="#434343"/>
</svg>
