<svg width="32" height="32" viewBox="0 0 32 32" fill="none" xmlns="http://www.w3.org/2000/svg">
<path fill-rule="evenodd" clip-rule="evenodd" d="M23.5749 3.12722C23.8089 2.82096 23.7524 2.38143 23.4485 2.1455C23.1447 1.90957 22.7086 1.96658 22.4746 2.27284L19.2124 6.54117H3.69447C3.4194 6.54117 3.17025 6.70482 3.05916 6.95847C2.94808 7.21212 2.99599 7.50796 3.18134 7.71283L14.6464 20.3855V28.5997H8.07248C7.68894 28.5997 7.37802 28.9131 7.37802 29.2997C7.37802 29.6863 7.68894 29.9997 8.07248 29.9997H15.3209L15.3409 30L15.3609 29.9997H22.6094C22.9929 29.9997 23.3038 29.6863 23.3038 29.2997C23.3038 28.9131 22.9929 28.5997 22.6094 28.5997H16.0354V20.3911L27.8123 7.71973C28.0016 7.51615 28.0528 7.21874 27.9427 6.96278C27.8326 6.70682 27.5823 6.54117 27.3055 6.54117H20.9656L23.5749 3.12722ZM5.26762 7.94116H18.1424L17.1155 9.28483C15.878 8.85566 14.422 9.38889 13.6344 10.4852C12.8804 11.5348 12.8766 12.9088 13.6715 13.807L13.0616 14.5914C12.825 14.8957 12.8779 15.3357 13.1797 15.5741C13.4816 15.8126 13.9181 15.7593 14.1547 15.455L14.8564 14.5527C16.0681 14.9119 17.4596 14.3783 18.2231 13.3155C18.953 12.2996 18.9799 10.9796 18.2598 10.0815L19.8957 7.94116H25.7033L15.3478 19.0831L5.26762 7.94116ZM16.8845 10.7091C16.8884 10.7123 16.8923 10.7154 16.8964 10.7185C16.904 10.7245 16.9118 10.7302 16.9196 10.7358C17.3966 11.1147 17.535 11.8936 17.0384 12.5848C16.5094 13.3213 15.6033 13.4799 15.0452 13.1399C15.0245 13.1245 15.0032 13.1105 14.9815 13.0978C14.4697 12.7326 14.3076 11.9278 14.819 11.2159C15.3496 10.4774 16.2594 10.3199 16.8171 10.6638C16.8402 10.6781 16.8626 10.6932 16.8845 10.7091Z" fill="#434343" stroke="#434343" stroke-width="0.3" stroke-linecap="round" stroke-linejoin="round"/>
</svg>
