<svg width="32" height="32" viewBox="0 0 32 32" fill="none" xmlns="http://www.w3.org/2000/svg">
<path d="M19 4.55556C19 4.143 18.842 3.74733 18.5607 3.45561C18.2794 3.16389 17.8978 3 17.5 3H14.5C14.1022 3 13.7206 3.16389 13.4393 3.45561C13.158 3.74733 13 4.143 13 4.55556V10H19V4.55556ZM17.5 8.44444H14.5V4.55556H17.5V8.44444Z" fill="#434343"/>
<path d="M24.3333 6H21V7.64286H24.3333V27.3571H7.66667V7.64286H11V6H7.66667C7.22464 6 6.80072 6.17309 6.48816 6.48118C6.17559 6.78928 6 7.20714 6 7.64286V27.3571C6 27.7929 6.17559 28.2107 6.48816 28.5188C6.80072 28.8269 7.22464 29 7.66667 29H24.3333C24.7754 29 25.1993 28.8269 25.5118 28.5188C25.8244 28.2107 26 27.7929 26 27.3571V7.64286C26 7.20714 25.8244 6.78928 25.5118 6.48118C25.1993 6.17309 24.7754 6 24.3333 6Z" fill="#434343"/>
<path fill-rule="evenodd" clip-rule="evenodd" d="M16.4757 13.8848C17.2286 13.4458 17.9964 13.0493 19.0933 13.0044C18.4551 12.4957 17.7222 12.1665 16.9619 12.0169C15.4767 11.9049 14.9233 12.369 14.3653 12.8369C13.8667 13.255 13.3643 13.6763 12.1904 13.6927C12.1006 13.7975 12.0159 13.9072 11.9386 14.0169C12.1455 13.9795 12.3599 13.9521 12.5893 13.9346C12.7513 13.9247 12.9158 13.9172 13.0729 13.9172C13.6288 13.9172 14.1523 13.992 14.6758 14.1466L14.7681 14.174C15.2766 13.9471 15.8375 13.8673 16.381 13.9371L16.4757 13.8848ZM16.1241 18.9422H14.5885V15.0618H16.1042C16.4034 15.0618 16.6402 15.1017 16.8272 15.184C17.0266 15.2713 17.1836 15.4059 17.2983 15.588C17.4105 15.765 17.4653 15.9571 17.4653 16.1541C17.4653 16.3411 17.413 16.5182 17.3133 16.6803C17.2759 16.7426 17.231 16.8 17.1787 16.8523C17.2734 16.9147 17.3557 16.992 17.423 17.0818C17.5626 17.2663 17.6349 17.4833 17.6349 17.7302C17.6349 17.9247 17.5925 18.1068 17.5102 18.2738C17.428 18.4409 17.3208 18.5756 17.1936 18.6704C17.0715 18.7626 16.9169 18.8325 16.7374 18.8774C16.5704 18.9197 16.3635 18.9422 16.1241 18.9422ZM15.466 18.1217H16.1266C16.3061 18.1217 16.3759 18.1142 16.4034 18.1092C16.4831 18.0943 16.5504 18.0718 16.5978 18.0419C16.6377 18.017 16.6726 17.9796 16.7025 17.9247C16.7324 17.8698 16.7474 17.8075 16.7474 17.7302C16.7474 17.6429 16.7274 17.5706 16.6851 17.5107C16.6452 17.4534 16.5878 17.4135 16.513 17.3885C16.4457 17.3661 16.3161 17.3411 16.0668 17.3411H15.466V18.1217ZM15.466 16.5182H16.012C16.2513 16.5182 16.3535 16.4982 16.3934 16.4858C16.4682 16.4633 16.5205 16.4309 16.5529 16.3885C16.5853 16.3436 16.6028 16.2838 16.6028 16.2064C16.6028 16.1291 16.5853 16.0668 16.5504 16.0119C16.5205 15.9645 16.4806 15.9371 16.4258 15.9197C16.3784 15.9047 16.2563 15.8797 15.9571 15.8797H15.466V16.5182ZM11.9037 15.4458C12.3699 15.4458 12.7987 15.4084 13.1178 15.3734C13.225 15.3635 13.3347 15.3485 13.4444 15.3311C13.2549 15.6328 13.1228 15.962 13.048 16.2987L13.0031 16.3111C12.387 16.4926 11.8649 16.7433 11.3629 16.9845L11.3578 16.9869C11.2406 17.0443 11.121 17.1017 11.0038 17.1565C10.9813 16.5705 11.0586 15.9819 11.2381 15.4183L11.2581 15.4208C11.4675 15.4383 11.6844 15.4458 11.9037 15.4458ZM11.901 15.2416C12.3597 15.2416 12.7785 15.2042 13.0951 15.1692C13.1998 15.1593 13.3045 15.1443 13.4092 15.1293L13.4092 15.1293L13.6062 15.0994C13.6785 15.0071 13.7532 14.9149 13.838 14.8276C14.0399 14.6206 14.2643 14.4485 14.5036 14.3114C14.0374 14.1842 13.5663 14.1218 13.0727 14.1218C12.9206 14.1218 12.7611 14.1268 12.604 14.1393C12.3821 14.1567 12.1752 14.1817 11.9758 14.2191L11.7813 14.254C11.5869 14.5607 11.4273 14.8849 11.3052 15.2191C11.4996 15.2341 11.6991 15.2416 11.901 15.2416ZM20.9581 17.6157C20.1554 17.5583 19.5571 17.3788 19.0162 17.1618C19.0461 16.6655 18.9588 16.1668 18.7544 15.7104C19.056 15.7478 19.3801 15.7677 19.7316 15.7628C20.1479 15.7553 20.5069 15.7179 20.8285 15.6555C20.998 16.2939 21.0429 16.9623 20.9581 17.6157ZM18.7794 15.503C19.0511 15.5379 19.3328 15.5554 19.622 15.5554H19.7267C20.1031 15.5504 20.4422 15.518 20.7662 15.4556C20.5294 14.6875 20.1056 13.9668 19.4973 13.3633C19.44 13.3059 19.3827 13.2535 19.3228 13.2012L19.101 13.2111C18.1013 13.2535 17.3833 13.6002 16.6903 13.9992C17.2088 14.1214 17.7024 14.3858 18.1113 14.7898C18.3257 15.0017 18.4977 15.2386 18.6373 15.488L18.7794 15.503ZM19.9375 19.6028C20.0198 19.6028 20.1045 19.6028 20.1893 19.6003C20.2117 19.6003 20.2367 19.6003 20.2616 19.5953C20.0696 19.912 19.8378 20.2113 19.5685 20.4881C17.634 22.4757 14.468 22.5081 12.4961 20.5579C12.0499 20.119 11.7033 19.6152 11.4565 19.0766H11.464L11.4765 19.0591C11.9551 18.8646 12.5235 18.6751 13.401 18.5978L13.4434 18.5928C13.5656 18.7848 13.7102 18.9668 13.8797 19.1339C14.2087 19.4606 14.5902 19.6951 14.999 19.8372C15.1685 20.2188 15.9987 21.8946 15.9987 21.8946C15.9987 21.8946 16.8562 20.0641 16.9609 19.8472C17.29 19.7374 17.6016 19.5679 17.8833 19.3409L17.9456 19.3584C18.6038 19.5255 19.237 19.6028 19.9375 19.6028ZM19.9382 19.3984C20.0204 19.3984 20.1027 19.3984 20.185 19.3959C20.2074 19.3959 20.2299 19.3959 20.2523 19.3934L20.3794 19.3884C20.6487 18.8921 20.8306 18.361 20.9229 17.8148C20.0678 17.7525 19.4446 17.548 18.9909 17.3684C18.9061 17.9969 18.6294 18.6054 18.1557 19.0941C18.1354 19.1164 18.1136 19.1359 18.0915 19.1557L18.0915 19.1557L18.0685 19.1764C18.6842 19.3286 19.28 19.3984 19.9382 19.3984ZM11.3978 18.8723L11.3928 18.8748H11.3679C11.1735 18.3935 11.0563 17.8898 11.0139 17.3785L11.0862 17.3436C11.1542 17.3124 11.2223 17.2796 11.2898 17.247C11.3411 17.2223 11.3921 17.1977 11.4427 17.174C11.9263 16.9396 12.4249 16.7027 13.0033 16.5256C12.911 17.1616 13.0232 17.8199 13.3323 18.401C12.4474 18.4858 11.879 18.6778 11.3978 18.8723Z" fill="#434343"/>
<rect width="12" height="1" transform="matrix(1 0 0 -1 10 25)" fill="#434343"/>
</svg>
