<svg width="32" height="32" viewBox="0 0 32 32" fill="none" xmlns="http://www.w3.org/2000/svg">
<path fill-rule="evenodd" clip-rule="evenodd" d="M7.94335 1.81625C7.84187 1.55943 7.5514 1.43352 7.29459 1.535C7.03777 1.63649 6.91185 1.92696 7.01334 2.18377L7.492 3.39503L2.27105 8.17597C2.11039 8.32309 2.06347 8.55728 2.15505 8.75493C2.24664 8.95258 2.45564 9.06819 2.67174 9.04074L9.38595 8.18764L9.71284 9.01483L4.9399 10.9911C4.81737 11.0419 4.72002 11.1392 4.66926 11.2617C4.6185 11.3842 4.61849 11.5219 4.66923 11.6444L6.06679 15.019C6.11754 15.1416 6.21488 15.2389 6.33741 15.2897C6.45993 15.3404 6.5976 15.3404 6.72012 15.2896L11.4226 13.3413L13.8187 19.4047L11.8707 22.0339C11.7661 22.1751 11.7433 22.3607 11.8105 22.523L13.2081 25.8964C13.2753 26.0586 13.4226 26.1736 13.5962 26.1995L17.1072 26.723C17.2899 26.7503 17.4728 26.6745 17.5828 26.526L19.6949 23.6737C19.7994 23.5326 19.8222 23.347 19.7551 23.1848L18.3575 19.8102C18.2903 19.6479 18.1429 19.5328 17.9691 19.507L14.7448 19.0272L10.8249 9.10798C10.8241 9.10598 10.8233 9.10397 10.8225 9.10197L10.1808 7.47805C10.1762 7.46484 10.1711 7.45191 10.1655 7.43927L7.94335 1.81625ZM10.0804 9.94497L5.78446 11.7238L6.79935 14.1744L11.055 12.4112L10.0804 9.94497ZM4.10744 7.85028L7.88546 4.39066L9.00664 7.2278L4.10744 7.85028ZM14.6089 20.018L12.8427 22.4018L14.0236 25.2522L16.9578 25.6897L18.7229 23.306L17.5419 20.4544L14.6089 20.018ZM30.4288 24.2645C30.5708 24.5013 30.4941 24.8084 30.2573 24.9505L27.2138 26.7766C27.0395 26.8812 26.8192 26.8698 26.6565 26.7478L24.5218 25.1467L22.387 26.7478C22.2092 26.8812 21.9648 26.8812 21.787 26.7478L20.5696 25.8348C20.3487 25.6691 20.3039 25.3557 20.4696 25.1348C20.6353 24.9139 20.9487 24.8691 21.1696 25.0348L22.087 25.7228L24.2218 24.1217C24.3995 23.9884 24.644 23.9884 24.8218 24.1217L26.9876 25.7461L29.7428 24.093C29.9796 23.9509 30.2867 24.0277 30.4288 24.2645ZM30.4288 27.9168C30.5709 28.1536 30.4941 28.4608 30.2573 28.6028L27.2138 30.4289C27.0395 30.5335 26.8192 30.5221 26.6566 30.4002L24.5218 28.7991L22.387 30.4002C22.2093 30.5335 21.9648 30.5335 21.787 30.4002L19.6522 28.7991L17.5175 30.4002C17.3397 30.5335 17.0952 30.5335 16.9175 30.4002L14.7827 28.7991L12.6479 30.4002C12.4701 30.5335 12.2257 30.5335 12.0479 30.4002L9.91312 28.7991L7.77834 30.4002C7.60056 30.5335 7.35611 30.5335 7.17834 30.4002L5.01251 28.7758L2.25732 30.4289C2.02053 30.571 1.7134 30.4942 1.57133 30.2574C1.42926 30.0206 1.50604 29.7135 1.74283 29.5714L4.78631 27.7453C4.96063 27.6407 5.18092 27.6521 5.34355 27.7741L7.47834 29.3752L9.61312 27.7741C9.7909 27.6408 10.0353 27.6408 10.2131 27.7741L12.3479 29.3752L14.4827 27.7741C14.6605 27.6408 14.9049 27.6408 15.0827 27.7741L17.2175 29.3752L19.3522 27.7741C19.53 27.6408 19.7745 27.6408 19.9522 27.7741L22.087 29.3752L24.2218 27.7741C24.3996 27.6408 24.644 27.6408 24.8218 27.7741L26.9876 29.3985L29.7428 27.7453C29.9796 27.6033 30.2867 27.68 30.4288 27.9168ZM5.34355 24.1217C5.18092 23.9998 4.96063 23.9884 4.78631 24.093L1.74283 25.9191C1.50604 26.0612 1.42926 26.3683 1.57133 26.6051C1.7134 26.8419 2.02053 26.9186 2.25732 26.7766L5.01251 25.1235L7.17834 26.7478C7.35611 26.8812 7.60056 26.8812 7.77834 26.7478L9.91312 25.1467L10.8305 25.8348C11.0514 26.0005 11.3648 25.9557 11.5305 25.7348C11.6962 25.5139 11.6514 25.2005 11.4305 25.0348L10.2131 24.1217C10.0353 23.9884 9.7909 23.9884 9.61312 24.1217L7.47834 25.7228L5.34355 24.1217Z" fill="#434343"/>
</svg>
