<svg width="32" height="32" viewBox="0 0 32 32" fill="none" xmlns="http://www.w3.org/2000/svg">
<path fill-rule="evenodd" clip-rule="evenodd" d="M11.9302 6.0703L11.8991 6.07664L11.8699 6.08022L11.8683 6.08041L11.8461 6.08364C11.8251 6.08681 11.7906 6.09233 11.7437 6.10087C11.6499 6.11796 11.5066 6.14708 11.3225 6.1935C10.9541 6.28642 10.4247 6.44808 9.80334 6.71992C8.56107 7.26341 6.95861 8.24375 5.53136 9.99223C4.11132 11.7319 3.72372 13.2011 3.65945 14.1856C3.62691 14.6841 3.67629 15.0737 3.72924 15.3286C3.75574 15.4561 3.78311 15.5497 3.8015 15.606C3.81069 15.6342 3.8176 15.6529 3.821 15.6618C3.82185 15.664 3.82247 15.6656 3.82286 15.6666C4.00176 16.0895 3.8141 16.5817 3.4007 16.7693C2.98458 16.9581 2.49733 16.7667 2.31238 16.3419L3.06583 16.0001C2.31238 16.3419 2.31214 16.3414 2.3119 16.3408L2.31139 16.3397L2.3103 16.3371L2.30779 16.3312L2.30157 16.3162C2.2969 16.3048 2.29122 16.2906 2.28471 16.2736C2.2717 16.2395 2.25535 16.1943 2.2371 16.1384C2.20062 16.0267 2.15642 15.8719 2.11611 15.6779C2.03545 15.2897 1.9703 14.7442 2.01407 14.0736C2.10244 12.72 2.6309 10.9159 4.26452 8.91455C5.89093 6.92208 7.72396 5.79814 9.15377 5.17259C9.86846 4.85991 10.4843 4.67086 10.927 4.5592C11.1485 4.50333 11.3273 4.46669 11.4542 4.4436C11.5176 4.43205 11.5681 4.42387 11.6046 4.41836C11.6171 4.41646 11.628 4.41488 11.6372 4.41358C11.6477 4.41158 11.6608 4.40913 11.6763 4.4063C11.7166 4.39895 11.7737 4.389 11.8463 4.37748C11.9914 4.35446 12.1988 4.32513 12.4575 4.29795C12.9741 4.24366 13.6999 4.19743 14.5467 4.2283C16.2293 4.28965 18.4508 4.65769 20.451 5.93391C22.4233 7.19228 23.5482 8.71428 24.1792 9.93816C24.4937 10.5482 24.6846 11.0822 24.798 11.4708C24.8548 11.6653 24.8922 11.8239 24.9161 11.9381C24.9281 11.9952 24.9367 12.0413 24.9425 12.0753C24.9455 12.0923 24.9478 12.1063 24.9495 12.1171L24.9516 12.131L24.9523 12.1362L24.9526 12.1383L24.9528 12.1392C24.9528 12.1397 24.9529 12.1401 24.1367 12.2591L24.9528 12.1392C25.0172 12.5994 24.7041 13.0266 24.2533 13.0924C23.8039 13.1579 23.3874 12.8403 23.321 12.3824C23.321 12.3824 23.321 12.3825 23.321 12.3824L23.3187 12.3683C23.3161 12.3532 23.3112 12.3267 23.3035 12.2897C23.288 12.2158 23.2611 12.1004 23.2176 11.9514C23.1306 11.6532 22.978 11.2228 22.7199 10.7222C22.2057 9.7249 21.2693 8.44118 19.5771 7.36146C17.9128 6.2996 16.0117 5.96622 14.4879 5.91066C13.7314 5.88308 13.0831 5.92453 12.6263 5.97253C12.3984 5.99649 12.2192 6.02196 12.0995 6.04095C12.0397 6.05044 11.9948 6.05829 11.9662 6.06351L11.9357 6.06922L11.9302 6.0703Z" fill="#434343"/>
<path fill-rule="evenodd" clip-rule="evenodd" d="M9.8522 14.3796C9.85266 14.3799 9.8531 14.3802 9.42406 15.099L9.8531 14.3802C10.242 14.6221 10.3651 15.14 10.1281 15.537C9.89247 15.9318 9.38932 16.0583 9.0013 15.8216L8.99477 15.8179C8.98555 15.8127 8.96742 15.8027 8.9408 15.7892C8.88747 15.7621 8.80069 15.7213 8.68382 15.6767C8.44965 15.5874 8.09866 15.4844 7.65597 15.4445C6.78712 15.3661 5.51026 15.5245 4.00802 16.6135C3.63674 16.8826 3.12203 16.7936 2.85838 16.4145C2.59473 16.0355 2.68198 15.5101 3.05325 15.2409C4.88756 13.9112 6.55741 13.6554 7.80113 13.7676C8.41473 13.823 8.91149 13.9665 9.261 14.0998C9.43597 14.1665 9.57501 14.2311 9.67455 14.2816C9.72436 14.3068 9.76442 14.3286 9.79428 14.3455C9.80922 14.354 9.82163 14.3612 9.83144 14.3671L9.84423 14.3747L9.84915 14.3778L9.85125 14.3791L9.8522 14.3796Z" fill="#434343"/>
<path fill-rule="evenodd" clip-rule="evenodd" d="M18.3871 14.0274C18.1016 14.3852 17.5862 14.4418 17.2326 14.1528C16.8771 13.8623 16.8196 13.3326 17.1042 12.9697L17.7479 13.4957C17.1042 12.9697 17.1045 12.9692 17.1049 12.9688L17.1056 12.9679L17.1071 12.9659L17.1108 12.9613L17.1205 12.9494C17.128 12.9402 17.1375 12.9288 17.1491 12.9152C17.1722 12.8881 17.2036 12.8524 17.2434 12.8099C17.3229 12.7248 17.4362 12.6116 17.584 12.4833C17.8793 12.2269 18.3154 11.9074 18.897 11.6323C20.0754 11.0749 21.8012 10.7243 24.0682 11.3685C24.5069 11.4931 24.7636 11.9572 24.6415 12.4051C24.5194 12.8529 24.0648 13.1149 23.6261 12.9902C21.7494 12.457 20.4256 12.7646 19.5903 13.1597C19.165 13.3608 18.8532 13.5912 18.6524 13.7656C18.5521 13.8527 18.4803 13.9251 18.4366 13.9718C18.4148 13.9951 18.4002 14.0119 18.3927 14.0207L18.3871 14.0274Z" fill="#434343"/>
<path fill-rule="evenodd" clip-rule="evenodd" d="M18.0087 12.6975C18.0091 12.6976 18.0094 12.6977 17.7475 13.4959L18.0094 12.6977C18.4412 12.8454 18.6739 13.3224 18.5293 13.7632C18.3848 14.2036 17.9182 14.4412 17.4867 14.2943C17.4866 14.2943 17.4866 14.2943 17.4865 14.2943L17.4862 14.2942L17.4816 14.2927L17.4508 14.2828C17.4215 14.2737 17.3752 14.2597 17.3133 14.2424C17.1894 14.2077 17.0038 14.16 16.7687 14.1116C16.297 14.0145 15.6339 13.9165 14.8735 13.9128C13.3471 13.9054 11.4971 14.2759 9.97314 15.7167C9.63903 16.0325 9.11736 16.0121 8.80795 15.671C8.49854 15.33 8.51856 14.7974 8.85266 14.4815C10.7879 12.6519 13.1052 12.2208 14.8813 12.2294C15.7721 12.2337 16.5441 12.348 17.0946 12.4613C17.3706 12.5181 17.593 12.5751 17.7492 12.6188C17.8274 12.6407 17.8892 12.6593 17.933 12.673C17.955 12.6799 17.9724 12.6855 17.9852 12.6897L18.0008 12.6948L18.006 12.6966L18.0079 12.6972L18.0087 12.6975Z" fill="#434343"/>
<path fill-rule="evenodd" clip-rule="evenodd" d="M12.5054 7.31965C12.9067 7.10923 13.0682 6.60771 12.8661 6.19472C12.6625 5.7789 12.1672 5.61028 11.7599 5.81811L12.1285 6.57103C11.7599 5.81811 11.7593 5.81841 11.7587 5.81872L11.7574 5.81938L11.7546 5.82083L11.7481 5.82426L11.7312 5.83329C11.7183 5.8403 11.7022 5.84929 11.683 5.86038C11.6447 5.88254 11.5944 5.91309 11.5341 5.95288C11.4133 6.03243 11.2521 6.14912 11.0664 6.30973C10.6946 6.63136 10.2256 7.12839 9.78958 7.85281C8.91006 9.31403 8.2072 11.6279 8.60356 15.1477C8.65556 15.6095 9.06446 15.9409 9.51684 15.8878C9.96923 15.8347 10.2938 15.4173 10.2418 14.9554C9.88209 11.7611 10.5322 9.83465 11.1946 8.73414C11.5295 8.1777 11.8788 7.8135 12.1324 7.59413C12.2595 7.48423 12.3628 7.41047 12.4284 7.3672C12.4612 7.34557 12.4846 7.33162 12.4966 7.32463L12.5054 7.31965Z" fill="#434343"/>
<path fill-rule="evenodd" clip-rule="evenodd" d="M11.3244 6.52116C11.3572 6.0575 11.7519 5.70872 12.2061 5.74214L12.1468 6.58168C12.2061 5.74214 12.2067 5.74219 12.2074 5.74224L12.2088 5.74235L12.2119 5.74259L12.2192 5.7432L12.2383 5.74498C12.2529 5.74644 12.2714 5.74847 12.2936 5.75128C12.3378 5.75689 12.3968 5.76561 12.4687 5.77899C12.6126 5.80574 12.809 5.85125 13.0447 5.9282C13.5165 6.08224 14.1457 6.36232 14.8231 6.86888C16.1915 7.89218 17.6829 9.78371 18.5205 13.2301C18.6301 13.6813 18.3607 14.1378 17.9188 14.2497C17.4768 14.3617 17.0296 14.0867 16.92 13.6355C16.1637 10.5236 14.8685 8.98961 13.8486 8.22692C13.3319 7.84047 12.8665 7.63745 12.5424 7.53163C12.3801 7.47865 12.2532 7.45004 12.1731 7.43516C12.1332 7.42773 12.1051 7.42374 12.0902 7.42186L12.0789 7.42053C11.629 7.38266 11.2919 6.98187 11.3244 6.52116Z" fill="#434343"/>
<path fill-rule="evenodd" clip-rule="evenodd" d="M11.6392 3.01374C12.0873 2.93054 12.5165 3.23385 12.598 3.69121L12.6629 4.05551C12.7444 4.51287 12.4473 4.95109 11.9993 5.03429C11.5513 5.11749 11.122 4.81417 11.0405 4.35681L10.9756 3.99251C10.8941 3.53515 11.1912 3.09694 11.6392 3.01374Z" fill="#434343"/>
<path fill-rule="evenodd" clip-rule="evenodd" d="M12.5981 3.69153L12.7913 4.77769L11.1688 5.07846L10.9756 3.9923L12.5981 3.69153Z" fill="#434343"/>
<path fill-rule="evenodd" clip-rule="evenodd" d="M15.0754 28.3113L14.7368 26.4458L16.3583 26.1391L16.6968 28.0047L15.0754 28.3113Z" fill="#434343"/>
<path fill-rule="evenodd" clip-rule="evenodd" d="M15.5318 26.2389C15.9793 26.1528 16.4105 26.4534 16.4948 26.9102L16.6964 28.0023C16.7807 28.4591 16.4863 28.8992 16.0388 28.9853C15.5913 29.0714 15.1602 28.7709 15.0759 28.314L14.8743 27.2219C14.7899 26.7651 15.0844 26.325 15.5318 26.2389Z" fill="#434343"/>
<path fill-rule="evenodd" clip-rule="evenodd" d="M14.1322 23.1104L12.6797 15.1013L14.3012 14.7949L15.7537 22.804L14.1322 23.1104Z" fill="#434343"/>
<path fill-rule="evenodd" clip-rule="evenodd" d="M29.5335 15.4845C29.9436 15.6865 30.1157 16.1897 29.9178 16.6083L25.9644 24.9718C25.8269 25.2628 25.5384 25.4477 25.2219 25.4477H6.88653C6.43116 25.4477 6.06201 25.0709 6.06201 24.606C6.06201 24.1412 6.43116 23.7643 6.88653 23.7643H24.7042L28.4326 15.8767C28.6305 15.4581 29.1234 15.2824 29.5335 15.4845Z" fill="#434343"/>
<path fill-rule="evenodd" clip-rule="evenodd" d="M17.8174 21.2768C17.8174 20.812 18.1865 20.4351 18.6419 20.4351H26.7888C27.2442 20.4351 27.6133 20.812 27.6133 21.2768C27.6133 21.7417 27.2442 22.1185 26.7888 22.1185H18.6419C18.1865 22.1185 17.8174 21.7417 17.8174 21.2768Z" fill="#434343"/>
<path fill-rule="evenodd" clip-rule="evenodd" d="M11.0387 23.8881C11.4298 24.1263 11.5577 24.643 11.3244 25.0422L9.26321 28.5698C9.02994 28.969 8.5238 29.0996 8.13272 28.8614C7.74165 28.6233 7.61373 28.1066 7.84701 27.7074L9.90821 24.1798C10.1415 23.7806 10.6476 23.65 11.0387 23.8881Z" fill="#434343"/>
<path fill-rule="evenodd" clip-rule="evenodd" d="M21.9898 20.5733C22.3801 20.8128 22.5063 21.33 22.2716 21.7284L20.337 25.0139C20.1023 25.4123 19.5958 25.5411 19.2055 25.3016C18.8152 25.0621 18.689 24.5449 18.9236 24.1465L20.8583 20.8611C21.0929 20.4626 21.5995 20.3338 21.9898 20.5733Z" fill="#434343"/>
<path fill-rule="evenodd" clip-rule="evenodd" d="M24.3931 23.8881C24.7842 23.65 25.2903 23.7807 25.5235 24.1799L27.584 27.7075C27.8172 28.1067 27.6892 28.6234 27.2981 28.8615C26.907 29.0996 26.4008 28.9689 26.1676 28.5696L24.1072 25.0421C23.874 24.6428 24.002 24.1261 24.3931 23.8881Z" fill="#434343"/>
</svg>
