<svg width="32" height="32" viewBox="0 0 32 32" fill="none" xmlns="http://www.w3.org/2000/svg">
<path d="M18.625 26.5H4.191C2.98262 26.5 2 25.5174 2 24.309V5.94187C2 4.7335 2.9835 3.75 4.19187 3.75H24.3081C25.5165 3.75 26.5 4.7335 26.5 5.94187V18.625C26.5 19.1089 26.1089 19.5 25.625 19.5C25.1411 19.5 24.75 19.1089 24.75 18.625V5.94187C24.75 5.69863 24.5514 5.5 24.3081 5.5H4.19187C3.94863 5.5 3.75 5.69863 3.75 5.94187V24.309C3.75 24.5522 3.94775 24.75 4.191 24.75H18.625C19.1089 24.75 19.5 25.1411 19.5 25.625C19.5 26.1089 19.1089 26.5 18.625 26.5ZM25.625 10.75H2.875C2.392 10.75 2 10.358 2 9.875C2 9.392 2.392 9 2.875 9H25.625C26.1089 9 26.5 9.392 26.5 9.875C26.5 10.358 26.1089 10.75 25.625 10.75ZM7.25 7.25C6.767 7.25 6.375 6.858 6.375 6.375V2.875C6.375 2.392 6.767 2 7.25 2C7.733 2 8.125 2.392 8.125 2.875V6.375C8.125 6.858 7.733 7.25 7.25 7.25ZM14.25 7.25C13.767 7.25 13.375 6.858 13.375 6.375V2.875C13.375 2.392 13.767 2 14.25 2C14.733 2 15.125 2.392 15.125 2.875V6.375C15.125 6.858 14.733 7.25 14.25 7.25ZM21.25 7.25C20.7661 7.25 20.375 6.858 20.375 6.375V2.875C20.375 2.392 20.7661 2 21.25 2C21.7339 2 22.125 2.392 22.125 2.875V6.375C22.125 6.858 21.7339 7.25 21.25 7.25Z" fill="#434343"/>
<path d="M7.25 18.625C7.73325 18.625 8.125 18.2332 8.125 17.75C8.125 17.2668 7.73325 16.875 7.25 16.875C6.76675 16.875 6.375 17.2668 6.375 17.75C6.375 18.2332 6.76675 18.625 7.25 18.625Z" fill="#434343"/>
<path d="M7.25 22.125C7.73325 22.125 8.125 21.7332 8.125 21.25C8.125 20.7668 7.73325 20.375 7.25 20.375C6.76675 20.375 6.375 20.7668 6.375 21.25C6.375 21.7332 6.76675 22.125 7.25 22.125Z" fill="#434343"/>
<path d="M21.25 15.125C21.7332 15.125 22.125 14.7332 22.125 14.25C22.125 13.7668 21.7332 13.375 21.25 13.375C20.7668 13.375 20.375 13.7668 20.375 14.25C20.375 14.7332 20.7668 15.125 21.25 15.125Z" fill="#434343"/>
<path d="M14.25 15.125C14.7332 15.125 15.125 14.7332 15.125 14.25C15.125 13.7668 14.7332 13.375 14.25 13.375C13.7668 13.375 13.375 13.7668 13.375 14.25C13.375 14.7332 13.7668 15.125 14.25 15.125Z" fill="#434343"/>
<path d="M14.25 18.625C14.7332 18.625 15.125 18.2332 15.125 17.75C15.125 17.2668 14.7332 16.875 14.25 16.875C13.7668 16.875 13.375 17.2668 13.375 17.75C13.375 18.2332 13.7668 18.625 14.25 18.625Z" fill="#434343"/>
<path d="M14.25 22.125C14.7332 22.125 15.125 21.7332 15.125 21.25C15.125 20.7668 14.7332 20.375 14.25 20.375C13.7668 20.375 13.375 20.7668 13.375 21.25C13.375 21.7332 13.7668 22.125 14.25 22.125Z" fill="#434343"/>
<path d="M10.75 15.125C11.2332 15.125 11.625 14.7332 11.625 14.25C11.625 13.7668 11.2332 13.375 10.75 13.375C10.2668 13.375 9.875 13.7668 9.875 14.25C9.875 14.7332 10.2668 15.125 10.75 15.125Z" fill="#434343"/>
<path d="M10.75 18.625C11.2332 18.625 11.625 18.2332 11.625 17.75C11.625 17.2668 11.2332 16.875 10.75 16.875C10.2668 16.875 9.875 17.2668 9.875 17.75C9.875 18.2332 10.2668 18.625 10.75 18.625Z" fill="#434343"/>
<path d="M10.75 22.125C11.2332 22.125 11.625 21.7332 11.625 21.25C11.625 20.7668 11.2332 20.375 10.75 20.375C10.2668 20.375 9.875 20.7668 9.875 21.25C9.875 21.7332 10.2668 22.125 10.75 22.125Z" fill="#434343"/>
<path d="M17.75 15.125C18.2332 15.125 18.625 14.7332 18.625 14.25C18.625 13.7668 18.2332 13.375 17.75 13.375C17.2668 13.375 16.875 13.7668 16.875 14.25C16.875 14.7332 17.2668 15.125 17.75 15.125Z" fill="#434343"/>
<path d="M17.75 18.625C18.2332 18.625 18.625 18.2332 18.625 17.75C18.625 17.2668 18.2332 16.875 17.75 16.875C17.2668 16.875 16.875 17.2668 16.875 17.75C16.875 18.2332 17.2668 18.625 17.75 18.625Z" fill="#434343"/>
<path d="M21.25 18.625C21.7332 18.625 22.125 18.2332 22.125 17.75C22.125 17.2668 21.7332 16.875 21.25 16.875C20.7668 16.875 20.375 17.2668 20.375 17.75C20.375 18.2332 20.7668 18.625 21.25 18.625Z" fill="#434343"/>
<path d="M17.75 22.125C18.2332 22.125 18.625 21.7332 18.625 21.25C18.625 20.7668 18.2332 20.375 17.75 20.375C17.2668 20.375 16.875 20.7668 16.875 21.25C16.875 21.7332 17.2668 22.125 17.75 22.125Z" fill="#434343"/>
<path d="M23.875 30C20.4984 30 17.75 27.2516 17.75 23.875C17.75 20.4984 20.4984 17.75 23.875 17.75C27.2516 17.75 30 20.4984 30 23.875C30 27.2516 27.2516 30 23.875 30ZM23.875 19.5C21.4626 19.5 19.5 21.4626 19.5 23.875C19.5 26.2874 21.4626 28.25 23.875 28.25C26.2874 28.25 28.25 26.2874 28.25 23.875C28.25 21.4626 26.2874 19.5 23.875 19.5ZM23.7105 26.3092C23.4961 26.3092 23.2879 26.2305 23.126 26.0852L21.5405 24.6634C21.1809 24.3414 21.1511 23.7884 21.474 23.4279C21.7969 23.0683 22.3507 23.0385 22.7095 23.3614L23.574 24.1366L24.918 22.2948C25.2024 21.9045 25.7492 21.8179 26.1395 22.1031C26.5297 22.3875 26.6164 22.9344 26.3311 23.3246L24.4166 25.9496C24.2714 26.15 24.0474 26.2786 23.8015 26.304L23.7105 26.3092Z" fill="#434343"/>
</svg>
