<svg width="104" height="32" viewBox="0 0 104 32" fill="none" xmlns="http://www.w3.org/2000/svg">
<path d="M10 4L8 6L10 8L12 6L10 4ZM12 6L14 8L16 6L14 4L12 6ZM16 6L18 8L20 6L18 4L16 6ZM20 6L22 8L24 6L22 4L20 6ZM22 8H5V28H27V8H22ZM7 10H25V26H19V21H13V26H7V10ZM9 12V14H11V12H9ZM13 12V14H15V12H13ZM17 12V14H19V12H17ZM21 12V14H23V12H21ZM9 15V17H11V15H9ZM13 15V17H15V15H13ZM17 15V17H19V15H17ZM21 15V17H23V15H21ZM9 18V20H11V18H9ZM13 18V20H15V18H13ZM17 18V20H19V18H17ZM21 18V20H23V18H21ZM9 21V23H11V21H9ZM21 21V23H23V21H21ZM15 23H17V26H15V23Z" fill="#434343"/>
<path d="M50.2344 15.6094C50.2344 16.724 50.0417 17.7031 49.6562 18.5469C49.2708 19.3854 48.7188 20.0312 48 20.4844C47.2865 20.9323 46.4635 21.1562 45.5312 21.1562C44.6094 21.1562 43.7865 20.9323 43.0625 20.4844C42.3438 20.0312 41.7865 19.388 41.3906 18.5547C41 17.7214 40.8021 16.7604 40.7969 15.6719V15.0312C40.7969 13.9219 40.9922 12.9427 41.3828 12.0938C41.7786 11.2448 42.3333 10.5964 43.0469 10.1484C43.7656 9.69531 44.5885 9.46875 45.5156 9.46875C46.4427 9.46875 47.263 9.69271 47.9766 10.1406C48.6953 10.5833 49.25 11.224 49.6406 12.0625C50.0312 12.8958 50.2292 13.8672 50.2344 14.9766V15.6094ZM48.2578 15.0156C48.2578 13.7552 48.0182 12.7891 47.5391 12.1172C47.0651 11.4453 46.3906 11.1094 45.5156 11.1094C44.6615 11.1094 43.9922 11.4453 43.5078 12.1172C43.0286 12.7839 42.7839 13.7292 42.7734 14.9531V15.6094C42.7734 16.8594 43.0156 17.8255 43.5 18.5078C43.9896 19.1901 44.6667 19.5312 45.5312 19.5312C46.4062 19.5312 47.0781 19.1979 47.5469 18.5312C48.0208 17.8646 48.2578 16.8906 48.2578 15.6094V15.0156ZM58.6719 14.0547H55.9297V21H54.0312V14.0547H51.3203V12.5469H58.6719V14.0547ZM63.1641 21.1562C61.9609 21.1562 60.9844 20.7786 60.2344 20.0234C59.4896 19.263 59.1172 18.2526 59.1172 16.9922V16.7578C59.1172 15.9141 59.2786 15.1615 59.6016 14.5C59.9297 13.8333 60.388 13.3151 60.9766 12.9453C61.5651 12.5755 62.2214 12.3906 62.9453 12.3906C64.0964 12.3906 64.9844 12.7578 65.6094 13.4922C66.2396 14.2266 66.5547 15.2656 66.5547 16.6094V17.375H61.0312C61.0885 18.0729 61.3203 18.625 61.7266 19.0312C62.138 19.4375 62.6536 19.6406 63.2734 19.6406C64.1432 19.6406 64.8516 19.2891 65.3984 18.5859L66.4219 19.5625C66.0833 20.0677 65.6302 20.4609 65.0625 20.7422C64.5 21.0182 63.8672 21.1562 63.1641 21.1562ZM62.9375 13.9141C62.4167 13.9141 61.9948 14.0964 61.6719 14.4609C61.3542 14.8255 61.151 15.3333 61.0625 15.9844H64.6797V15.8438C64.638 15.2083 64.4688 14.7292 64.1719 14.4062C63.875 14.0781 63.4635 13.9141 62.9375 13.9141ZM75.2188 12.5469V21H73.3203V14.0781H70.9297L70.7734 17.0234C70.6745 18.4401 70.401 19.4583 69.9531 20.0781C69.5104 20.6927 68.8307 21 67.9141 21H67.3281L67.3203 19.4219L67.7109 19.3828C68.1276 19.3255 68.4297 19.0729 68.6172 18.625C68.8099 18.1719 68.9323 17.349 68.9844 16.1562L69.1406 12.5469H75.2188ZM79.2812 15.2344H81.1406C81.8333 15.2344 82.4375 15.3542 82.9531 15.5938C83.4688 15.8333 83.8594 16.1693 84.125 16.6016C84.3958 17.0339 84.5312 17.5365 84.5312 18.1094C84.5312 18.9792 84.224 19.6771 83.6094 20.2031C82.9948 20.7292 82.1771 20.9948 81.1562 21H77.3828V12.5469H79.2812V15.2344ZM79.2812 16.7578V19.4844H81.1328C81.5964 19.4844 81.9609 19.3698 82.2266 19.1406C82.4974 18.9062 82.6328 18.5755 82.6328 18.1484C82.6328 17.7214 82.5 17.3854 82.2344 17.1406C81.974 16.8906 81.6198 16.763 81.1719 16.7578H79.2812Z" fill="#434343"/>
</svg>
