<svg width="32" height="32" viewBox="0 0 32 32" fill="none" xmlns="http://www.w3.org/2000/svg">
<path d="M7.34617 11.5609L7.34614 11.5608L7.34291 11.562C6.9124 11.7148 6.53737 11.9837 6.2848 12.3284C6.04251 12.6218 5.89474 12.9717 5.86129 13.3407C5.86129 13.3408 5.86128 13.3409 5.86127 13.3409L5.78225 14.1318H4.39286C3.60018 14.1318 2.95 14.7668 2.95 15.5455V23.7273C2.95 25.0104 4.01339 26.05 5.32143 26.05H26.6786C27.9866 26.05 29.05 25.0104 29.05 23.7273V15.5455C29.05 14.7668 28.3998 14.1318 27.6071 14.1318H14.6114L14.5455 13.3413L14.5456 13.3413L14.5455 13.3404C14.5074 12.9678 14.3601 12.6178 14.1357 12.3509C13.8651 11.9842 13.4903 11.7104 13.0588 11.5618L13.0588 11.5617L13.056 11.5609L13.0545 11.5605C13.023 11.5517 12.9878 11.5419 12.9519 11.5368L12.9512 11.5367L12.7336 11.5096C12.7335 11.5095 12.7334 11.5095 12.7333 11.5095C12.3344 11.455 11.9181 11.4 11.4918 11.4H8.89179V11.3999L8.8895 11.4001C8.39065 11.4229 7.90619 11.4776 7.4507 11.5368L7.45022 11.5368C7.41438 11.5419 7.37916 11.5517 7.34764 11.5605L7.34617 11.5609ZM13.3135 12.9662L13.3134 12.9663L13.3151 12.9683C13.4294 13.1061 13.4951 13.2648 13.5127 13.4367C13.5127 13.4367 13.5128 13.4368 13.5128 13.4369L13.5773 14.1318H6.81629L6.88936 13.4416L6.88939 13.4416L6.8895 13.4402C6.90252 13.2702 6.97191 13.107 7.10111 12.95L7.10117 12.95L7.10276 12.9478C7.23997 12.7615 7.42527 12.6184 7.64126 12.5352C8.05661 12.481 8.49801 12.4317 8.91144 12.4136H11.4918C11.8056 12.4136 12.1268 12.4526 12.4621 12.4932C12.5047 12.4984 12.5475 12.5036 12.5905 12.5087C12.5906 12.5087 12.5907 12.5087 12.5909 12.5087L12.7558 12.5306C12.9722 12.6182 13.1578 12.7573 13.3135 12.9662ZM20.0357 9.28169V9.28182C20.0357 11.5104 21.8884 13.3227 24.1621 13.3227C24.4441 13.3227 24.6764 13.0968 24.6764 12.8182C24.6764 12.5396 24.4441 12.3136 24.1621 12.3136C22.4523 12.3136 21.0643 10.9532 21.0643 9.28182C21.0643 8.01036 22.1274 6.96359 23.4287 6.95909C24.4281 6.95914 25.2357 7.75136 25.2357 8.72727C25.2357 9.44866 24.6323 10.0409 23.8929 10.0409C23.3577 10.0409 22.9261 9.61685 22.9261 9.09545C22.9261 8.81685 22.6938 8.59091 22.4118 8.59091C22.1298 8.59091 21.8975 8.81685 21.8975 9.09545C21.8975 10.1741 22.7937 11.05 23.8929 11.05C25.2009 11.05 26.2643 10.0104 26.2643 8.72727C26.2643 7.19412 24.992 5.95 23.4286 5.95L23.4283 5.95C21.5586 5.95922 20.0404 7.4533 20.0357 9.28169ZM10.1964 6.95909H10.2057C11.0703 6.95909 11.7714 7.65106 11.7714 8.5C11.7714 9.34866 11.0659 10.0409 10.1964 10.0409C9.32697 10.0409 8.62143 9.34866 8.62143 8.5C8.62143 7.65134 9.32697 6.95909 10.1964 6.95909ZM5.32143 25.0409C4.59912 25.0409 4.00664 24.4758 3.97954 23.7773H28.0205C27.9934 24.4758 27.4009 25.0409 26.6786 25.0409H5.32143ZM28.0214 17.4136V22.7682H24.8714V17.4136H28.0214ZM23.8429 17.4136V22.7682H19.3V17.4136H23.8429ZM18.2714 17.4136V22.7682H13.7286V17.4136H18.2714ZM12.7 17.4136V22.7682H8.15714V17.4136H12.7ZM7.12857 22.7682H3.97857V17.4136H7.12857V22.7682ZM28.0214 16.4045H24.3571H3.97857V15.5455C3.97857 15.3241 4.16411 15.1409 4.39286 15.1409H6.24536H6.24538H6.24541H6.24544H6.24547H6.24549H6.24552H6.24555H6.24557H6.2456H6.24563H6.24566H6.24568H6.24571H6.24574H6.24576H6.24579H6.24582H6.24585H6.24587H6.2459H6.24593H6.24596H6.24598H6.24601H6.24604H6.24606H6.24609H6.24612H6.24615H6.24617H6.2462H6.24623H6.24625H6.24628H6.24631H6.24633H6.24636H6.24639H6.24642H6.24644H6.24647H6.2465H6.24652H6.24655H6.24658H6.2466H6.24663H6.24666H6.24669H6.24671H6.24674H6.24677H6.24679H6.24682H6.24685H6.24687H6.2469H6.24693H6.24695H6.24698H6.24701H6.24704H6.24706H6.24709H6.24712H6.24714H6.24717H6.2472H6.24722H6.24725H6.24728H6.2473H6.24733H6.24736H6.24738H6.24741H6.24744H6.24746H6.24749H6.24752H6.24754H6.24757H6.2476H6.24762H6.24765H6.24767H6.2477H6.24773H6.24775H6.24778H6.24781H6.24783H6.24786H6.24789H6.24791H6.24794H6.24796H6.24799H6.24802H6.24804H6.24807H6.2481H6.24812H6.24815H6.24817H6.2482H6.24823H6.24825H6.24828H6.2483H6.24833H6.24836H6.24838H6.24841H6.24843H6.24846H6.24848H6.24851H6.24854H6.24856H6.24859H6.24861H6.24864H6.24866H6.24869H6.24872H6.24874H6.24877H6.24879H6.24882H6.24884H6.24887H6.24889H6.24892H6.24894H6.24897H6.249H6.24902H6.24905H6.24907H6.2491H6.24912H6.24915H6.24917H6.2492H6.24922H6.24925H6.24927H6.2493H6.24932H6.24935H6.24937H6.2494H6.24942H6.24944H6.24947H6.24949H6.24952H6.24954H6.24957H6.24959H6.24962H6.24964H6.24967H6.24969H6.24971H6.24974H6.24976H6.24979H6.24981H6.24984H6.24986H6.24988H6.24991H6.24993H6.24996H6.24998H6.25H6.25003H6.25005H6.25008H6.2501H6.25012H6.25015H6.25017H6.25019H6.25022H6.25024H6.25027H6.25029H6.25031H6.25034H6.25036H6.25038H6.25041H6.25043H6.25045H6.25047H6.2505H6.25052H6.25054H6.25057H6.25059H6.25061H6.25064H6.25066H6.25068H6.2507H6.25073H6.25075H6.25077H6.25079H6.25082H6.25084H6.25086H6.25088H6.25091H6.25093H6.25095H6.25097H6.251H6.25102H6.25104H6.25106H6.25108H6.25111H6.25113H6.25115H6.25117H6.25119H6.25121H6.25124H6.25126H6.25128H6.2513H6.25132H6.25134H6.25137H6.25139H6.25141H6.25143H6.25145H6.25147H6.25149H6.25151H6.25153H6.25156H6.25158H6.2516H6.25162H6.25164H6.25166H6.25168H6.2517H6.25172H6.25174H6.25176H6.25178H6.2518H6.25182H6.25184H6.25186H6.25188H6.2519H6.25192H6.25194H6.25196H6.25198H6.252H6.25202H6.25204H6.25206H6.25208H6.2521H6.25212H6.25214H6.25216H6.25218H6.2522H6.25221H6.25223H6.25225H6.25227H6.25229H6.25231H6.25233H6.25235H6.25237H6.25238H6.2524H6.25242H6.25244H6.25246H6.25248H6.25249H6.25251H6.25253H6.25255H6.25257H6.25258H6.2526H6.25262H6.25264H6.25266H6.25267H6.25269H6.25271H6.25273H6.25274H6.25276H6.25278H6.25279H6.25281H6.25283H6.25285H6.25286H6.25288H6.2529H6.25291H6.25293H6.25295H6.25296H6.25298H6.25299H6.25301H6.25303H6.25304H6.25306H6.25308H6.25309H6.25311H6.25312H6.25314H6.25315H6.25317H6.25319H6.2532H6.25322H6.25323H6.25325H6.25326H6.25328H6.25329H6.25331H6.25332H6.25334H6.25335H6.25337H6.25338H6.2534H6.25341H6.25342H6.25344H6.25345H6.25347H6.25348H6.25349H6.25351H6.25352H6.25354H6.25355H6.25356H6.25358H6.25359H6.2536H6.25362H6.25363H6.25364H6.25366H6.25367H6.25368H6.2537H6.25371H6.25372H6.25373H6.25375H6.25376H6.25377H6.25378H6.2538H6.25381H6.25382H6.25383H6.25384H6.25386H6.25387H6.25388H6.25389H6.2539H6.25391H6.25393H6.25394H6.25395H6.25396H6.25397H6.25398H6.25399H6.254H6.25401H6.25402H6.25404H6.25405H6.25406H6.25407H6.25408H6.25409H6.2541H6.25411H6.25412H6.25413H6.25414H6.25415H6.25416H6.25416H6.25417H6.25418H6.25419H6.2542H6.25421H6.25422H6.25423H6.25424H6.25425H6.25425H6.25426H6.25427H6.25428H6.25429H6.2543H6.2543H6.25431H6.25432H6.25433H6.25434H6.25434H6.25435H6.25436H6.25437H6.25437H6.25438H6.25439H6.25441H6.25442H6.25443H6.25445H6.25446H6.25447H6.25448H6.25449H6.2545H6.25451H6.25452H6.25453H6.25454H6.25455H6.25456H6.25457H6.25458H6.25458H6.25459H6.2546H6.25461H6.25462H6.25463H6.25463H6.25464H14.1382H14.1382H14.1382H14.1382H14.1382H14.1383H14.1383H14.1383H14.1383H14.1383H14.1383H14.1383H14.1383H14.1383H14.1383H14.1383H14.1384H14.1384H14.1384H14.1384H14.1384H14.1384H14.1384H14.1384H14.1384H14.1385H14.1385H14.1385H14.1385H14.1385H14.1385H14.1385H14.1385H14.1385H14.1385H14.1386H14.1386H14.1386H14.1386H14.1386H14.1386H14.1386H14.1386H14.1386H14.1386H14.1386H14.1386H14.1387H14.1387H14.1387H14.1387H14.1387H14.1387H14.1387H14.1387H14.1387H14.1387H14.1387H14.1388H14.1388H14.1388H14.1388H14.1388H14.1388H14.1388H14.1388H14.1388H14.1389H14.1389H14.1389H14.1389H14.1389H14.1389H14.1389H14.1389H14.1389H14.139H14.139H14.139H14.139H14.139H14.139H14.139H14.139H14.139H14.1391H14.1391H14.1391H14.1391H14.1391H14.1391H14.1391H14.1391H14.1392H14.1392H14.1392H14.1392H14.1392H14.1392H14.1392H14.1393H14.1393H14.1393H14.1393H14.1393H14.1393H14.1393H14.1393H14.1394H14.1394H14.1394H14.1394H14.1394H14.1394H14.1394H14.1395H14.1395H14.1395H14.1395H14.1395H14.1395H14.1395H14.1396H14.1396H14.1396H14.1396H14.1396H14.1396H14.1397H14.1397H14.1397H14.1397H14.1397H14.1397H14.1397H14.1398H14.1398H14.1398H14.1398H14.1398H14.1398H14.1399H14.1399H14.1399H14.1399H14.1399H14.1399H14.14H14.14H14.14H14.14H14.14H14.14H14.1401H14.1401H14.1401H14.1401H14.1401H14.1401H14.1402H14.1402H14.1402H14.1402H14.1402H14.1403H14.1403H14.1403H14.1403H14.1403H14.1403H14.1404H14.1404H14.1404H14.1404H14.1404H14.1405H14.1405H14.1405H14.1405H14.1405H14.1405H14.1406H14.1406H14.1406H14.1406H14.1406H14.1407H14.1407H14.1407H14.1407H14.1407H14.1408H14.1408H14.1408H14.1408H14.1408H14.1409H14.1409H14.1409H14.1409H14.1409H14.141H14.141H14.141H14.141H14.141H14.1411H14.1411H14.1411H14.1411H14.1411H14.1412H14.1412H14.1412H14.1412H14.1412H14.1413H14.1413H14.1413H14.1413H14.1413H14.1414H14.1414H14.1414H14.1414H14.1414H14.1415H14.1415H14.1415H14.1415H14.1416H14.1416H14.1416H14.1416H14.1416H14.1417H14.1417H14.1417H14.1417H14.1418H14.1418H14.1418H14.1418H14.1418H14.1419H14.1419H14.1419H14.1419H14.1419H14.142H14.142H14.142H14.142H14.1421H14.1421H14.1421H14.1421H14.1422H14.1422H14.1422H14.1422H14.1422H14.1423H14.1423H14.1423H14.1423H14.1424H14.1424H14.1424H14.1424H14.1425H14.1425H14.1425H14.1425H14.1425H14.1426H14.1426H14.1426H14.1426H14.1427H14.1427H14.1427H14.1427H14.1428H14.1428H14.1428H14.1428H14.1429H14.1429H14.1429H14.1429H14.1429H14.143H14.143H14.143H14.143H14.1431H14.1431H14.1431H14.1431H14.1432H14.1432H14.1432H14.1432H14.1433H14.1433H14.1433H14.1433H14.1434H14.1434H14.1434H14.1434H14.1435H14.1435H14.1435H14.1435H14.1436H14.1436H14.1436H14.1436H14.1437H14.1437H14.1437H14.1437H14.1438H14.1438H14.1438H14.1438H14.1439H14.1439H14.1439H14.1439H14.144H14.144H14.144H14.144H14.1441H14.1441H14.1441H14.1441H14.1442H14.1442H14.1442H14.1442H14.1443H14.1443H14.1443H14.1443H14.1444H14.1444H14.1444H14.1445H14.1445H14.1445H14.1445H14.1446H14.1446H14.1446H14.1446H14.1447H14.1447H14.1447H14.1447H14.1448H14.1448H14.1448H14.1448H14.1449H14.1449H14.1449H14.1449H14.145H14.145H14.145H14.1451H14.1451H14.1451H14.1451H14.1452H14.1452H14.1452H14.1452H14.1453H14.1453H14.1453H14.1453H14.1454H14.1454H14.1454H14.1454H14.1455H14.1455H14.1455H14.1456H14.1456H14.1456H14.1456H14.1457H14.1457H14.1457H14.1457H14.1458H14.1458H14.1458H14.1458H14.1459H14.1459H14.1459H14.146H14.146H14.146H14.146H14.1461H14.1461H14.1461H14.1461H14.1462H14.1462H14.1462H14.1463H14.1463H14.1463H14.1463H14.1464H14.1464H14.1464H14.1464H14.1465H14.1465H14.1465H14.1466H14.1466H14.1466H14.1466H14.1467H14.1467H14.1467H14.1467H14.1468H14.1468H14.1468H14.1468H14.1469H14.1469H14.1469H14.147H14.147H14.147H14.147H14.1471H14.1471H14.1471H14.1471H14.1472H14.1472H14.1472H14.1473H14.1473H14.1473H14.1473H14.1474H14.1474H14.1474H14.1474H14.1475H14.1475H27.6071C27.8359 15.1409 28.0214 15.3241 28.0214 15.5455V16.4045ZM7.59286 8.5C7.59286 9.90588 8.76303 11.05 10.1964 11.05C11.6298 11.05 12.8 9.90588 12.8 8.5C12.8 7.82302 12.5347 7.18289 12.0422 6.70072C11.5546 6.21873 10.9013 5.95 10.2057 5.95H10.1964C8.76303 5.95 7.59286 7.09412 7.59286 8.5Z" fill="#434343" stroke="#434343" stroke-width="0.1"/>
</svg>
