<svg width="32" height="32" viewBox="0 0 32 32" fill="none" xmlns="http://www.w3.org/2000/svg">
<path d="M27.5852 21.942C27.9004 21.9597 28.151 22.2336 28.1277 22.561C28.11 22.8762 27.8299 23.1154 27.5092 23.1033C27.4797 23.1033 27.4509 23.1092 27.404 23.1033C26.8792 23.1033 26.3658 23.2435 25.9281 23.5119L25.8056 23.5876C25.7761 23.6053 25.7414 23.6223 25.7063 23.6455C25.6188 23.6924 25.5199 23.7219 25.4206 23.7219C25.2107 23.7219 25.0121 23.6049 24.9128 23.4241C24.8313 23.2901 24.8139 23.1324 24.8545 22.9807C24.8955 22.829 24.9948 22.7068 25.1287 22.6308C25.152 22.6186 25.1756 22.6013 25.1988 22.5898L25.3214 22.5141C25.9399 22.1347 26.6629 21.9365 27.4037 21.9365C27.4568 21.9365 27.5151 21.9365 27.5852 21.942ZM30 25.9156C30 26.2382 29.739 26.4992 29.4165 26.4992H24.1162L24.7362 29.2897C24.7455 29.3317 24.7497 29.3741 24.7497 29.4164C24.7497 29.5476 24.7056 29.6768 24.622 29.7816C24.5109 29.9195 24.3436 30 24.1669 30H21.8333C21.5598 30 21.3231 29.8101 21.2641 29.5431L21.236 29.4168L20.5879 26.4996H11.4125L10.7645 29.4168L10.7364 29.5431C10.677 29.8101 10.4403 30 10.1668 30H7.83355C7.65653 30 7.48922 29.9195 7.3785 29.7816C7.29485 29.6768 7.25076 29.548 7.25076 29.4164C7.25076 29.3744 7.25493 29.3317 7.26395 29.2897L7.88388 26.4992H2.58359C2.26148 26.4992 2.00011 26.2382 2.00011 25.9156C2.00011 25.5931 2.26148 25.3324 2.58359 25.3324H8.14352L8.40593 24.1524C7.63223 24.1753 6.85125 23.9889 6.19452 23.5879L6.072 23.5122C5.60514 23.2262 5.07442 23.0922 4.49128 23.1036C4.47983 23.1095 4.46768 23.1095 4.45622 23.1095C4.1414 23.1095 3.88454 22.8644 3.87309 22.5496C3.85539 22.2288 4.10634 21.9549 4.42707 21.9427C5.232 21.908 6.01368 22.1118 6.67873 22.5148L6.80126 22.5905C7.35177 22.9262 8.02585 23.0519 8.66903 22.9675L9.06786 21.1717C8.09388 21.3633 7.05673 21.1963 6.19209 20.6686L6.07373 20.5968C5.10114 20.0038 3.83838 20.0538 2.92792 20.7193C2.66794 20.9106 2.30279 20.8533 2.11257 20.5933C1.92236 20.3329 1.97894 19.9684 2.23892 19.7778C3.52633 18.8356 5.31149 18.7648 6.68047 19.6001L6.79918 19.6719C7.56941 20.142 8.53088 20.208 9.35595 19.8743L10.6062 14.2475H10.1664C9.84433 14.2475 9.58331 13.9865 9.58331 13.6643V11.348L9.08417 3.86114C8.64474 4.12151 8.04529 4.32946 7.24972 4.32946C6.17613 4.32946 6.08935 4.82972 6.08276 4.92936C6.06228 5.24389 5.7898 5.47614 5.48122 5.48551C5.16675 5.4751 4.91648 5.22792 4.91648 4.91304C4.91648 4.30724 5.40417 3.163 7.24972 3.163C8.59059 3.163 9.04668 2.34578 9.06508 2.31141C9.18865 2.08228 9.45245 1.95626 9.70479 2.01389C9.95887 2.06909 10.148 2.28155 10.1651 2.54088L10.7121 10.7478H11.9165V6.66274C11.9165 6.65545 11.9183 6.64885 11.9183 6.64156C11.919 6.62385 11.9211 6.6065 11.9231 6.58914C11.9256 6.5697 11.9287 6.5506 11.9332 6.53186C11.937 6.51519 11.9419 6.49853 11.9471 6.48221C11.9533 6.46381 11.9599 6.44576 11.9679 6.42805C11.9745 6.41278 11.9818 6.39785 11.9898 6.38327C11.9995 6.36626 12.0099 6.3496 12.021 6.33328C12.0304 6.32009 12.0398 6.30655 12.0498 6.29405C12.0623 6.27878 12.0762 6.26454 12.0904 6.25066C12.1019 6.23955 12.1134 6.22774 12.1255 6.21733C12.1411 6.20414 12.1581 6.19268 12.1751 6.18122C12.188 6.17254 12.2005 6.16317 12.2144 6.15553C12.2341 6.14442 12.2557 6.1354 12.2768 6.12637C12.2893 6.12116 12.3011 6.11491 12.314 6.1104C12.3459 6.09964 12.3792 6.092 12.4136 6.08679C12.4167 6.08645 12.4198 6.08506 12.4233 6.08436H12.4247C12.4254 6.08436 12.4257 6.08402 12.4261 6.08402L12.4563 6.0802L21.1728 4.9179C21.4921 4.87798 21.7858 5.09981 21.8281 5.4192C21.8708 5.73824 21.6466 6.0316 21.3272 6.07464L20.6667 6.16248V10.7467H21.8333C22.1554 10.7467 22.4168 11.0075 22.4168 11.33V13.6639C22.4168 13.9861 22.1558 14.2472 21.8333 14.2472H21.3939L22.6438 19.8736C23.4692 20.2073 24.4307 20.1416 25.2002 19.6723L25.3196 19.5994C26.689 18.7648 28.4741 18.8353 29.7608 19.7778C30.0208 19.9681 30.0774 20.3329 29.8875 20.5933C29.6977 20.8533 29.3318 20.9106 29.0722 20.7193C28.161 20.0531 26.8976 20.0042 25.9264 20.5961L25.8073 20.669C25.1735 21.0554 24.4467 21.2491 23.7198 21.2491C23.4557 21.2491 23.1919 21.2227 22.9323 21.1717L23.3345 22.9835C23.6056 23.0651 23.783 23.3411 23.7407 23.6289C23.7184 23.7657 23.6497 23.8827 23.5536 23.9688L23.8566 25.3324H29.4165C29.739 25.3324 30 25.5931 30 25.9156ZM22.9212 26.4992L22.7917 25.9156L22.6622 25.3324L21.6251 20.6638L21.295 19.1776L20.1995 14.2472H19.0613L19.1922 14.8367L19.4397 15.9514L20.0999 18.9224L20.3672 20.1257L20.7694 21.9365L21.0496 23.1981L21.523 25.3279L21.5241 25.3324L21.6535 25.9156L21.7271 26.2472L21.783 26.4992L22.3016 28.8328H23.4397L22.9212 26.4992ZM9.69889 28.8328L10.2175 26.4992L10.2733 26.2475L10.3469 25.916L10.4768 25.3328L10.4795 25.3203L10.9363 23.2633L11.23 21.942L11.6337 20.1257L11.9009 18.9224L12.5146 16.16L12.8055 14.8512L12.9395 14.2475H11.8017L10.7062 19.1779L10.3761 20.6641L9.97831 22.4544L9.65169 23.9247L9.33894 25.3328L9.20913 25.916L9.07966 26.4996L8.56108 28.8332H9.69889V28.8328ZM13.0835 10.7467H14.2501V8.99636C14.2501 8.67384 14.5112 8.41313 14.8336 8.41313H17.75C18.0721 8.41313 18.3335 8.67384 18.3335 8.99636V10.7467H19.5001V6.35342L13.0835 7.17584V10.7467ZM17.1668 9.57994H15.4167V10.7467H17.1668V9.57994ZM10.7503 11.9136V13.0804H11.3334H13.667H18.3335H20.6667H21.2502V11.9136H20.0836H17.75H14.8336H12.5H10.7503ZM17.8656 14.2472H14.1349L13.7767 15.8601L15.9266 18.4874L18.18 15.6605L17.8656 14.2472ZM18.5049 17.1238L16.6819 19.4109L17.0648 19.8788C17.2082 19.8216 17.3477 19.7539 17.481 19.6723L17.7729 19.4945C18.1332 19.2744 18.524 19.1196 18.9274 19.0245L18.5049 17.1238ZM19.1797 20.1621C18.9003 20.2298 18.6295 20.3381 18.3796 20.4905L18.0877 20.6683C18.0027 20.72 17.9162 20.7679 17.8281 20.8127L18.7826 21.9792C19.0346 21.9111 19.2932 21.8681 19.5542 21.8483L19.1797 20.1621ZM19.8111 23.0036C19.7497 23.0047 19.6886 23.0068 19.6278 23.0116L19.8822 23.3227L19.8111 23.0036ZM12.1363 23.2415L12.3206 23.0102C12.2768 23.0075 12.2328 23.0068 12.1887 23.0061L12.1363 23.2415ZM13.1533 21.9656L14.1026 20.7752C14.0384 20.7408 13.9749 20.7061 13.9124 20.6683L13.6212 20.4905C13.3709 20.3381 13.1005 20.2298 12.8208 20.1621L12.4452 21.8521C12.6843 21.8691 12.9214 21.9077 13.1533 21.9656ZM13.0734 19.0245C13.4768 19.1193 13.868 19.2744 14.2283 19.4945L14.5195 19.6723C14.625 19.7365 14.7343 19.7924 14.8465 19.8417L15.1825 19.4202L13.4546 17.3085L13.0734 19.0245ZM14.2699 22.436L14.5188 22.5898C15.3994 23.1265 16.5952 23.1265 17.482 22.5898L17.6771 22.469L16.6361 21.1967C16.1838 21.2678 15.7215 21.2626 15.2706 21.1807L14.2699 22.436ZM11.9613 25.3324H20.0194L18.4248 23.3834C18.4102 23.3921 18.3946 23.3984 18.38 23.4074L18.0884 23.5879C17.4643 23.9674 16.7413 24.1656 16.0006 24.1656C15.2599 24.1656 14.5365 23.9674 13.9124 23.5879L13.6208 23.4074C13.5927 23.3904 13.5636 23.3751 13.5351 23.3591L11.9613 25.3324Z" fill="#434343"/>
</svg>
