<svg width="32" height="32" viewBox="0 0 32 32" fill="none" xmlns="http://www.w3.org/2000/svg">
<path fill-rule="evenodd" clip-rule="evenodd" d="M2.72851 28.8132L5.042 4.78812C5.22825 3.18643 6.34576 2 7.64953 2H24.2881C25.5919 2 26.7094 3.18643 26.8956 4.78812L29.1483 28.8132H30V29.9997H27.2683V28.8132H27.8969L26.0083 8.11026H23.6673V22.8218L23.5431 22.9998C22.7981 23.8896 21.8048 24.4235 20.7494 24.4235C19.6939 24.4235 18.7006 23.8896 18.0177 22.9405L17.8314 22.8218V8.11026H14.1685V22.8223L14.0443 23.0003C13.2993 23.8901 12.2439 24.424 11.1885 24.424C10.133 24.424 9.13968 23.8901 8.45675 22.941L8.33258 22.763V8.11026H5.92123L3.98011 28.8132H4.73171V29.9997H2V28.8132H2.72851ZM9.57427 18.3728V8.11026H12.9268V18.3728H9.57427ZM9.57427 19.5592V22.4664C10.0089 23.0003 10.6297 23.2969 11.2505 23.2969C11.8714 23.2969 12.4301 23.0003 12.9268 22.4664V19.5592H9.57427ZM19.0731 18.3728V8.11026H22.4256V18.3728H19.0731ZM19.0731 19.5592V22.4659C19.5077 22.9998 20.1285 23.2964 20.7494 23.2964C21.3702 23.2964 21.929 22.9998 22.4256 22.4659V19.5592H19.0731ZM25.9001 6.92383L25.716 4.90676C25.5919 3.95761 25.0331 3.18643 24.2881 3.18643H7.64953C6.96661 3.18643 6.34576 3.95761 6.2216 4.90676L6.03247 6.92383H25.9001Z" fill="#434343"/>
</svg>
