<svg width="24" height="24" viewBox="0 0 24 24" fill="none" xmlns="http://www.w3.org/2000/svg">
<path d="M12 21.5C6.76217 21.5 2.5 17.2378 2.5 12C2.5 6.76217 6.76217 2.5 12 2.5C17.2378 2.5 21.5 6.76217 21.5 12C21.5 17.2378 17.2378 21.5 12 21.5ZM12 3.42771C7.27277 3.42771 3.42771 7.27277 3.42771 12C3.42771 16.7272 7.27277 20.5723 12 20.5723C16.7272 20.5723 20.5723 16.7272 20.5723 12C20.5723 7.27277 16.7272 3.42771 12 3.42771Z" fill="#434343" stroke="#434343"/>
<path d="M17 12.8143C17.0552 12.8143 17.1 12.7695 17.1 12.7143V11.2857C17.1 11.2305 17.0552 11.1857 17 11.1857H12.8143V7C12.8143 6.94477 12.7695 6.9 12.7143 6.9H11.2857C11.2305 6.9 11.1857 6.94477 11.1857 7V11.1857H7C6.94477 11.1857 6.9 11.2305 6.9 11.2857V12.7143C6.9 12.7695 6.94477 12.8143 7 12.8143H11.1857V17C11.1857 17.0552 11.2305 17.1 11.2857 17.1H12.7143C12.7695 17.1 12.8143 17.0552 12.8143 17V12.8143H17Z" fill="#434343" stroke="#434343" stroke-width="0.2" stroke-linejoin="round"/>
</svg>
