<svg width="32" height="32" viewBox="0 0 32 32" fill="none" xmlns="http://www.w3.org/2000/svg">
<path d="M24.4888 14.1225C24.9344 14.1225 25.2777 13.7792 25.2777 13.3336V5.52599C25.2777 4.06998 24.1077 2.9 22.6517 2.9C21.1957 2.9 20.0257 4.06998 20.0257 5.52599V17.2374C20.0257 17.683 20.369 18.0263 20.8146 18.0263C21.2602 18.0263 21.6035 17.683 21.6035 17.2374V5.52599C21.6035 4.93824 22.064 4.47781 22.6517 4.47781C23.2395 4.47781 23.6999 4.93824 23.6999 5.52599V13.3336C23.6999 13.7792 24.0432 14.1225 24.4888 14.1225Z" fill="#434343" stroke="#434343" stroke-width="0.2"/>
<path d="M12.0884 8.15197C12.534 8.15197 12.8773 7.80867 12.8773 7.36307V5.52599V5.52461C12.8773 5.50222 12.8773 5.46936 12.8739 5.43566C12.871 5.40576 12.8647 5.36816 12.8494 5.33256C12.496 3.83873 11.5261 2.9 10.2513 2.9C8.79533 2.9 7.62534 4.06998 7.62534 5.52599V17.2374C7.62534 17.683 7.96864 18.0263 8.41425 18.0263C8.85986 18.0263 9.20315 17.683 9.20315 17.2374V16.4188H18.0589C18.5045 16.4188 18.8478 16.0755 18.8478 15.6299C18.8478 15.1843 18.5045 14.841 18.0589 14.841H9.20315V11.8261H18.0589C18.5045 11.8261 18.8478 11.4828 18.8478 11.0372C18.8478 10.5916 18.5045 10.2483 18.0589 10.2483H9.20315V5.52599C9.20315 4.93824 9.66358 4.47781 10.2513 4.47781C10.5665 4.47781 10.7921 4.63821 10.96 4.86747C11.1271 5.09549 11.2315 5.38524 11.2995 5.63131V7.36307C11.2995 7.80867 11.6428 8.15197 12.0884 8.15197Z" fill="#434343" stroke="#434343" stroke-width="0.2"/>
<path d="M20.0257 24.3561V28.0303C20.0257 28.4759 20.369 28.8192 20.8146 28.8192C21.2602 28.8192 21.6035 28.4759 21.6035 28.0303V24.3561C21.6035 23.9105 21.2602 23.5672 20.8146 23.5672C20.369 23.5672 20.0257 23.9105 20.0257 24.3561Z" fill="#434343" stroke="#434343" stroke-width="0.2"/>
<path d="M8.41425 23.5672C7.96864 23.5672 7.62534 23.9105 7.62534 24.3561V28.0303C7.62534 28.4759 7.96864 28.8192 8.41425 28.8192C8.85985 28.8192 9.20315 28.4759 9.20315 28.0303V26.9821H18.0589C18.5045 26.9821 18.8478 26.6388 18.8478 26.1932C18.8478 25.7476 18.5045 25.4043 18.0589 25.4043H9.20315V24.3561C9.20315 23.9105 8.85985 23.5672 8.41425 23.5672Z" fill="#434343" stroke="#434343" stroke-width="0.2"/>
<path d="M2.06597 20.9265L2.06596 20.9265L2.06695 20.9278C2.79799 21.8475 3.88327 22.3663 5.06159 22.3663C5.9292 22.3663 6.77537 22.0787 7.44977 21.5453C8.12262 22.0785 8.94783 22.3663 9.838 22.3663C10.7282 22.3663 11.5534 22.0785 12.2262 21.5454C12.8991 22.0785 13.7243 22.3663 14.6144 22.3663C15.482 22.3663 16.3282 22.0787 17.0026 21.5453C17.6757 22.079 18.5215 22.3893 19.3908 22.3893H19.391H19.3911H19.3912H19.3914H19.3915H19.3916H19.3917H19.3919H19.392H19.3921H19.3923H19.3924H19.3925H19.3927H19.3928H19.3929H19.393H19.3932H19.3933H19.3934H19.3935H19.3937H19.3938H19.3939H19.394H19.3941H19.3943H19.3944H19.3945H19.3946H19.3947H19.3949H19.395H19.3951H19.3952H19.3953H19.3955H19.3956H19.3957H19.3958H19.3959H19.396H19.3961H19.3963H19.3964H19.3965H19.3966H19.3967H19.3968H19.3969H19.397H19.3972H19.3973H19.3974H19.3975H19.3976H19.3977H19.3978H19.3979H19.398H19.3981H19.3982H19.3983H19.3984H19.3985H19.3987H19.3988H19.3989H19.399H19.3991H19.3992H19.3993H19.3994H19.3995H19.3996H19.3997H19.3998H19.3999H19.4H19.4001H19.4002H19.4003H19.4004H19.4005H19.4006H19.4007H19.4008H19.4009H19.401H19.401H19.4011H19.4012H19.4013H19.4014H19.4015H19.4016H19.4017H19.4018H19.4019H19.402H19.4021H19.4022H19.4023H19.4024H19.4024H19.4025H19.4026H19.4027H19.4028H19.4029H19.403H19.4031H19.4032H19.4032H19.4033H19.4034H19.4035H19.4036H19.4037H19.4038H19.4039H19.4039H19.404H19.4041H19.4042H19.4043H19.4044H19.4045H19.4045H19.4046H19.4047H19.4048H19.4049H19.405H19.405H19.4051H19.4052H19.4053H19.4054H19.4054H19.4055H19.4056H19.4057H19.4058H19.4058H19.4059H19.406H19.4061H19.4062H19.4062H19.4063H19.4064H19.4065H19.4066H19.4066H19.4067H19.4068H19.4069H19.4069H19.407H19.4071H19.4072H19.4073H19.4073H19.4074H19.4075H19.4076H19.4076H19.4077H19.4078H19.4079H19.4079H19.408H19.4081H19.4082H19.4082H19.4083H19.4084H19.4084H19.4085H19.4086H19.4087H19.4087H19.4088H19.4089H19.409H19.409H19.4091H19.4092H19.4092H19.4093H19.4094H19.4095H19.4095H19.4096H19.4097H19.4097H19.4098H19.4099H19.41H19.41H19.4101H19.4102H19.4102H19.4103H19.4104H19.4104H19.4105H19.4106H19.4107H19.4107H19.4108H19.4109H19.4109H19.411H19.4111H19.4111H19.4112H19.4113H19.4113H19.4114H19.4115H19.4116H19.4116H19.4117H19.4118H19.4118H19.4119H19.412H19.412H19.4121H19.4122H19.4122H19.4123H19.4124H19.4124H19.4125H19.4126H19.4126H19.4127H19.4128H19.4128H19.4129H19.413H19.413H19.4131H19.4132H19.4132H19.4133H19.4134H19.4134H19.4135H19.4136H19.4136H19.4137H19.4138H19.4138H19.4139H19.414H19.4141H19.4141H19.4142H19.4143H19.4143H19.4144H19.4145H19.4145H19.4146H19.4147H19.4147H19.4148H19.4149H19.4149H19.415H19.4151H19.4151H19.4152H19.4153H19.4153H19.4154H19.4155H19.4155H19.4156H19.4157H19.4157H19.4158H19.4159H19.4159H19.416H19.4161H19.4162H19.4162H19.4163H19.4164H19.4164H19.4165H19.4166H19.4166H19.4167H19.4168H19.4168H19.4169H19.417H19.417H19.4171H19.4172H19.4173H19.4173H19.4174H19.4175H19.4175H19.4176H19.4177H19.4178H19.4178H19.4179H19.418H19.418H19.4181H19.4182H19.4182H19.4183H19.4184H19.4185H19.4185H19.4186H19.4187H19.4188H19.4188H19.4189H19.419H19.419H19.4191H19.4192H19.4193H19.4193H19.4194H19.4195H19.4196H19.4196H19.4197H19.4198H19.4199H19.4199H19.42H19.4201H19.4202H19.4202H19.4203H19.4204H19.4205H19.4205H19.4206H19.4207H19.4208H19.4209H19.4209H19.421H19.4211H19.4212H19.4212H19.4213H19.4214H19.4215H19.4216H19.4216H19.4217H19.4218H19.4219H19.422H19.422H19.4221H19.4222H19.4223H19.4224H19.4224H19.4225H19.4226H19.4227H19.4228H19.4229H19.4229H19.423H19.4231H19.4232H19.4233H19.4234H19.4234H19.4235H19.4236H19.4237H19.4238H19.4239H19.424H19.4241H19.4241H19.4242H19.4243H19.4244H19.4245H19.4246H19.4247H19.4248H19.4248H19.4249H19.425H19.4251H19.4252H19.4253H19.4254H19.4255H19.4256H19.4257H19.4258H19.4259H19.4259H19.426H19.4261H19.4262H19.4263H19.4264H19.4265H19.4266H19.4267H19.4268H19.4269H19.427H19.4271H19.4272H19.4273H19.4274H19.4275H19.4276H19.4277H19.4278H19.4279H19.428H19.4281H19.4282H19.4283H19.4284H19.4285H19.4286H19.4287H19.4288H19.4289H19.429H19.4291H19.4292H19.4293H19.4294H19.4295H19.4297H19.4298H19.4299H19.43H19.4301H19.4302H19.4303H19.4304H19.4305H19.4306H19.4307H19.4309H19.431H19.4311H19.4312H19.4313H19.4314H19.4315H19.4316H19.4318H19.4319H19.432H19.4321H19.4322H19.4323H19.4325H19.4326H19.4327H19.4328H19.4329H19.4331H19.4332H19.4333H19.4334H19.4335H19.4337H19.4338H19.4339H19.434H19.4342H19.4343H19.4344H19.4345H19.4347H19.4348H19.4349H19.435H19.4352H19.4353H19.4354H19.4356H19.4357H19.4358H19.4359H19.4361H19.4362H19.4363H19.4365H19.4366H19.4367C20.3293 22.3893 21.1762 22.0784 21.8701 21.5444C22.5205 22.0563 23.3441 22.3663 24.2132 22.3663H24.2133H24.2134H24.2136H24.2137H24.2138H24.214H24.2141H24.2142H24.2143H24.2145H24.2146H24.2147H24.2149H24.215H24.2151H24.2152H24.2154H24.2155H24.2156H24.2157H24.2159H24.216H24.2161H24.2162H24.2164H24.2165H24.2166H24.2167H24.2168H24.217H24.2171H24.2172H24.2173H24.2174H24.2176H24.2177H24.2178H24.2179H24.218H24.2181H24.2183H24.2184H24.2185H24.2186H24.2187H24.2188H24.2189H24.219H24.2192H24.2193H24.2194H24.2195H24.2196H24.2197H24.2198H24.2199H24.22H24.2201H24.2202H24.2204H24.2205H24.2206H24.2207H24.2208H24.2209H24.221H24.2211H24.2212H24.2213H24.2214H24.2215H24.2216H24.2217H24.2218H24.2219H24.222H24.2221H24.2222H24.2223H24.2224H24.2225H24.2226H24.2227H24.2228H24.2229H24.223H24.2231H24.2232H24.2233H24.2234H24.2235H24.2236H24.2237H24.2238H24.2239H24.224H24.224H24.2241H24.2242H24.2243H24.2244H24.2245H24.2246H24.2247H24.2248H24.2249H24.225H24.2251H24.2251H24.2252H24.2253H24.2254H24.2255H24.2256H24.2257H24.2258H24.2258H24.2259H24.226H24.2261H24.2262H24.2263H24.2264H24.2264H24.2265H24.2266H24.2267H24.2268H24.2269H24.227H24.227H24.2271H24.2272H24.2273H24.2274H24.2275H24.2275H24.2276H24.2277H24.2278H24.2279H24.2279H24.228H24.2281H24.2282H24.2283H24.2283H24.2284H24.2285H24.2286H24.2287H24.2287H24.2288H24.2289H24.229H24.229H24.2291H24.2292H24.2293H24.2294H24.2294H24.2295H24.2296H24.2297H24.2297H24.2298H24.2299H24.23H24.23H24.2301H24.2302H24.2303H24.2303H24.2304H24.2305H24.2306H24.2306H24.2307H24.2308H24.2309H24.2309H24.231H24.2311H24.2311H24.2312H24.2313H24.2314H24.2314H24.2315H24.2316H24.2317H24.2317H24.2318H24.2319H24.2319H24.232H24.2321H24.2321H24.2322H24.2323H24.2324H24.2324H24.2325H24.2326H24.2326H24.2327H24.2328H24.2329H24.2329H24.233H24.2331H24.2331H24.2332H24.2333H24.2333H24.2334H24.2335H24.2335H24.2336H24.2337H24.2337H24.2338H24.2339H24.234H24.234H24.2341H24.2342H24.2342H24.2343H24.2344H24.2344H24.2345H24.2346H24.2346H24.2347H24.2348H24.2348H24.2349H24.235H24.235H24.2351H24.2352H24.2352H24.2353H24.2354H24.2354H24.2355H24.2356H24.2356H24.2357H24.2358H24.2358H24.2359H24.236H24.236H24.2361H24.2362H24.2363H24.2363H24.2364H24.2365H24.2365H24.2366H24.2367H24.2367H24.2368H24.2369H24.2369H24.237H24.2371H24.2371H24.2372H24.2373H24.2373H24.2374H24.2375H24.2375H24.2376H24.2377H24.2377H24.2378H24.2379H24.2379H24.238H24.2381H24.2381H24.2382H24.2383H24.2383H24.2384H24.2385H24.2386H24.2386H24.2387H24.2388H24.2388H24.2389H24.239H24.239H24.2391H24.2392H24.2392H24.2393H24.2394H24.2395H24.2395H24.2396H24.2397H24.2397H24.2398H24.2399H24.2399H24.24H24.2401H24.2402H24.2402H24.2403H24.2404H24.2404H24.2405H24.2406H24.2407H24.2407H24.2408H24.2409H24.2409H24.241H24.2411H24.2412H24.2412H24.2413H24.2414H24.2415H24.2415H24.2416H24.2417H24.2417H24.2418H24.2419H24.242H24.242H24.2421H24.2422H24.2423H24.2423H24.2424H24.2425H24.2426H24.2426H24.2427H24.2428H24.2429H24.243H24.243H24.2431H24.2432H24.2433H24.2433H24.2434H24.2435H24.2436H24.2437H24.2437H24.2438H24.2439H24.244H24.2441H24.2441H24.2442H24.2443H24.2444H24.2445H24.2445H24.2446H24.2447H24.2448H24.2449H24.2449H24.245H24.2451H24.2452H24.2453H24.2454H24.2454H24.2455H24.2456H24.2457H24.2458H24.2459H24.246H24.246H24.2461H24.2462H24.2463H24.2464H24.2465H24.2466H24.2467H24.2467H24.2468H24.2469H24.247H24.2471H24.2472H24.2473H24.2474H24.2475H24.2475H24.2476H24.2477H24.2478H24.2479H24.248H24.2481H24.2482H24.2483H24.2484H24.2485H24.2486H24.2487H24.2488H24.2488H24.2489H24.249H24.2491H24.2492H24.2493H24.2494H24.2495H24.2496H24.2497H24.2498H24.2499H24.25H24.2501H24.2502H24.2503H24.2504H24.2505H24.2506H24.2507H24.2508H24.2509H24.251H24.2511H24.2512H24.2514H24.2515H24.2516H24.2517H24.2518H24.2519H24.252H24.2521H24.2522H24.2523H24.2524H24.2525H24.2526H24.2527H24.2529H24.253H24.2531H24.2532H24.2533H24.2534H24.2535H24.2536H24.2538H24.2539H24.254H24.2541H24.2542H24.2543H24.2544H24.2546H24.2547H24.2548H24.2549H24.255H24.2552H24.2553H24.2554H24.2555H24.2556H24.2558H24.2559H24.256H24.2561H24.2562H24.2564H24.2565H24.2566H24.2567H24.2569H24.257H24.2571H24.2572H24.2574H24.2575H24.2576H24.2578H24.2579H24.258H24.2582H24.2583H24.2584H24.2585H24.2587H24.2588H24.2589H24.2591C25.4374 22.3663 26.5227 21.8475 27.2537 20.9278L27.2547 20.9265C27.5162 20.5866 27.4662 20.0869 27.1216 19.8218C26.7818 19.5605 26.2826 19.6103 26.0174 19.9543C25.6002 20.481 24.9634 20.7885 24.282 20.7885H24.282H24.282H24.282H24.282H24.282H24.2819H24.2819H24.2819H24.2819H24.2818H24.2818H24.2818H24.2818H24.2818H24.2818H24.2817H24.2817H24.2817H24.2817H24.2817H24.2817H24.2816H24.2816H24.2816H24.2816H24.2815H24.2815H24.2815H24.2815H24.2815H24.2814H24.2814H24.2814H24.2814H24.2813H24.2813H24.2813H24.2812H24.2812H24.2812H24.2812H24.2811H24.2811H24.2811H24.281H24.281H24.281H24.2809H24.2809H24.2809H24.2808H24.2808H24.2808H24.2807H24.2807H24.2807H24.2806H24.2806H24.2806H24.2805H24.2805H24.2804H24.2804H24.2804H24.2803H24.2803H24.2803H24.2802H24.2802H24.2801H24.2801H24.28H24.28H24.28H24.2799H24.2799H24.2798H24.2798H24.2797H24.2797H24.2796H24.2796H24.2795H24.2795H24.2794H24.2794H24.2793H24.2793H24.2792H24.2792H24.2791H24.2791H24.279H24.279H24.2789H24.2789H24.2788H24.2788H24.2787H24.2787H24.2786H24.2786H24.2785H24.2784H24.2784H24.2783H24.2783H24.2782H24.2782H24.2781H24.278H24.278H24.2779H24.2779H24.2778H24.2777H24.2777H24.2776H24.2776H24.2775H24.2774H24.2774H24.2773H24.2772H24.2772H24.2771H24.277H24.277H24.2769H24.2768H24.2768H24.2767H24.2766H24.2766H24.2765H24.2764H24.2764H24.2763H24.2762H24.2762H24.2761H24.276H24.2759H24.2759H24.2758H24.2757H24.2757H24.2756H24.2755H24.2754H24.2754H24.2753H24.2752H24.2751H24.2751H24.275H24.2749H24.2748H24.2748H24.2747H24.2746H24.2745H24.2744H24.2744H24.2743H24.2742H24.2741H24.2741H24.274H24.2739H24.2738H24.2737H24.2736H24.2736H24.2735H24.2734H24.2733H24.2732H24.2732H24.2731H24.273H24.2729H24.2728H24.2727H24.2726H24.2726H24.2725H24.2724H24.2723H24.2722H24.2721H24.272H24.272H24.2719H24.2718H24.2717H24.2716H24.2715H24.2714H24.2713H24.2712H24.2711H24.2711H24.271H24.2709H24.2708H24.2707H24.2706H24.2705H24.2704H24.2703H24.2702H24.2701H24.27H24.2699H24.2698H24.2698H24.2697H24.2696H24.2695H24.2694H24.2693H24.2692H24.2691H24.269H24.2689H24.2688H24.2687H24.2686H24.2685H24.2684H24.2683H24.2682H24.2681H24.268H24.2679H24.2678H24.2677H24.2676H24.2675H24.2674H24.2673H24.2672H24.2671H24.267H24.2669H24.2668H24.2667H24.2666H24.2665H24.2664H24.2663H24.2661H24.266H24.2659H24.2658H24.2657H24.2656H24.2655H24.2654H24.2653H24.2652H24.2651H24.265H24.2649H24.2648H24.2647H24.2646H24.2644H24.2643H24.2642H24.2641H24.264H24.2639H24.2638H24.2637H24.2636H24.2635H24.2633H24.2632H24.2631H24.263H24.2629H24.2628H24.2627H24.2626H24.2625H24.2623H24.2622H24.2621H24.262H24.2619H24.2618H24.2617H24.2615H24.2614H24.2613H24.2612H24.2611H24.261H24.2609H24.2607H24.2606H24.2605H24.2604H24.2603H24.2602H24.26H24.2599H24.2598H24.2597H24.2596H24.2595H24.2593H24.2592H24.2591H24.259H24.2589H24.2587H24.2586H24.2585H24.2584H24.2583H24.2582H24.258H24.2579H24.2578H24.2577H24.2575H24.2574H24.2573H24.2572H24.2571H24.2569H24.2568H24.2567H24.2566H24.2565H24.2563H24.2562H24.2561H24.256H24.2558H24.2557H24.2556H24.2555H24.2554H24.2552H24.2551H24.255H24.2549H24.2547H24.2546H24.2545H24.2544H24.2542H24.2541H24.254H24.2539H24.2537H24.2536H24.2535H24.2534H24.2532H24.2531H24.253H24.2529H24.2527H24.2526H24.2525H24.2523H24.2522H24.2521H24.252H24.2518H24.2517H24.2516H24.2515H24.2513H24.2512H24.2511H24.2509H24.2508H24.2507H24.2506H24.2504H24.2503H24.2502H24.25H24.2499H24.2498H24.2497H24.2495H24.2494H24.2493H24.2491H24.249H24.2489H24.2488H24.2486H24.2485H24.2484H24.2482H24.2481H24.248H24.2478H24.2477H24.2476H24.2474H24.2473H24.2472H24.2471H24.2469H24.2468H24.2467H24.2465H24.2464H24.2463H24.2461H24.246H24.2459H24.2457H24.2456H24.2455H24.2453H24.2452H24.2451H24.2449H24.2448H24.2447H24.2446H24.2444H24.2443H24.2442H24.244H24.2439H24.2438H24.2436H24.2435H24.2434H24.2432H24.2431H24.243H24.2428H24.2427H24.2426H24.2424H24.2423H24.2422H24.242H24.2419H24.2418H24.2416H24.2415H24.2414H24.2412H24.2411H24.241H24.2408H24.2407H24.2406H24.2404H24.2403H24.2402H24.24H24.2399H24.2397H24.2396H24.2395H24.2393H24.2392H24.2391H24.2389H24.2388H24.2387H24.2385H24.2384H24.2383H24.2381H24.238H24.2379H24.2377H24.2376H24.2375H24.2373H24.2372H24.2371H24.2369H24.2368H24.2367H24.2365H24.2364H24.2363H24.2361C23.5535 20.7885 22.894 20.48 22.4774 19.9538L22.4775 19.9538L22.475 19.9508C22.3201 19.7701 22.1096 19.6633 21.8709 19.6633C21.6405 19.6633 21.4039 19.7639 21.2664 19.9508L21.2261 19.9911L21.2258 19.9908L21.22 19.9978C20.7797 20.5261 20.1189 20.8344 19.4367 20.8344H19.4138C18.7113 20.8344 18.0726 20.5053 17.6306 19.9748L17.6306 19.9748L17.6297 19.9738C17.4748 19.7931 17.2643 19.6863 17.0256 19.6863C16.7936 19.6863 16.5554 19.7882 16.4183 19.9776C15.9775 20.505 15.3403 20.8115 14.6603 20.8115C13.9777 20.8115 13.3182 20.5029 12.9017 19.9768L12.9017 19.9768L12.8992 19.9738C12.7443 19.7931 12.5338 19.6863 12.2951 19.6863C12.0632 19.6863 11.8249 19.7882 11.6879 19.9776C11.247 20.505 10.6098 20.8115 9.92986 20.8115C9.2472 20.8115 8.5877 20.5029 8.17118 19.9768L8.17124 19.9768L8.1687 19.9738C8.01383 19.7931 7.80329 19.6863 7.56461 19.6863C7.45528 19.6863 7.30816 19.6983 7.17089 19.7357C7.04006 19.7714 6.89675 19.8359 6.81787 19.9566C6.37707 20.4829 5.7407 20.7885 5.06159 20.7885C4.37916 20.7885 3.71987 20.4802 3.30333 19.9544C3.03815 19.6103 2.53886 19.5605 2.19907 19.8218C1.85448 20.0869 1.80445 20.5866 2.06597 20.9265Z" fill="#434343" stroke="#434343" stroke-width="0.2"/>
<path d="M29.311 22.3894C29.7467 22.3894 30.0999 22.0362 30.0999 21.6005C30.0999 21.1648 29.7467 20.8116 29.311 20.8116C28.8753 20.8116 28.5221 21.1648 28.5221 21.6005C28.5221 22.0362 28.8753 22.3894 29.311 22.3894Z" fill="#434343" stroke="#434343" stroke-width="0.2"/>
</svg>
