<svg width="32" height="32" viewBox="0 0 32 32" fill="none" xmlns="http://www.w3.org/2000/svg">
<path fill-rule="evenodd" clip-rule="evenodd" d="M26.481 5.33986C26.481 6.63198 25.4651 7.68001 24.213 7.68001C22.9604 7.68001 21.9451 6.63198 21.9451 5.33986C21.9451 4.04747 22.9603 3 24.213 3C25.4651 3 26.481 4.04747 26.481 5.33986ZM27.9617 9.11083C27.8015 8.58274 27.3232 8.1996 26.7586 8.1996H21.6668C21.1019 8.1996 20.6236 8.58274 20.4634 9.11083L18.4487 17.4262C18.3443 17.8581 18.5986 18.2957 19.0172 18.4035C19.438 18.5121 19.8624 18.2494 19.9668 17.8175L21.4555 11.6739C21.4893 11.5346 21.625 11.4496 21.7585 11.484C21.8922 11.5187 21.9731 11.6595 21.9395 11.7987L19.5108 21.8216H21.8186V27.9596C21.8186 28.5337 22.2698 28.9995 22.8265 28.9995C23.3833 28.9995 23.8347 28.5337 23.8347 27.9596V21.8216H24.5905V27.9596C24.5905 28.5337 25.042 28.9995 25.5986 28.9995C26.1554 28.9995 26.6065 28.5337 26.6065 27.9596V21.8213H28.9144L26.4854 11.7971C26.4518 11.658 26.5327 11.5175 26.6667 11.4837C26.8004 11.4498 26.9357 11.5353 26.9697 11.6744L28.4583 17.8176C28.5628 18.2495 28.9872 18.512 29.4058 18.4041C29.8266 18.2954 30.0809 17.8576 29.9765 17.4257L27.9617 9.11083ZM15.4338 28.415C15.4338 28.7381 15.6876 29 16.0008 29C16.3138 29 16.5677 28.7381 16.5677 28.415V3.58509C16.5677 3.26205 16.3138 3.00013 16.0008 3.00013C15.6877 3.00013 15.4338 3.26205 15.4338 3.58509V28.415ZM10.0641 11.0598V17.5597C10.0641 18.1339 10.5155 18.5996 11.0723 18.5996C11.6287 18.5996 12.0802 18.1338 12.0802 17.5597V10.7997C12.0802 9.36382 10.9518 8.19972 9.56013 8.19972H4.52003C3.1283 8.19972 2 9.36387 2 10.7997V17.5597C2 18.1339 2.45146 18.5996 3.0079 18.5996C3.56467 18.5996 4.01608 18.1338 4.01608 17.5597V11.0598C4.01608 10.9159 4.12874 10.7997 4.26791 10.7997C4.40737 10.7997 4.52003 10.9159 4.52003 11.0598V27.8297C4.52003 28.4757 5.02782 28.9996 5.65398 28.9996C6.28048 28.9996 6.78794 28.4757 6.78794 27.8297V18.8597C6.78794 18.7159 6.90087 18.5996 7.04005 18.5996C7.17923 18.5996 7.29216 18.7159 7.29216 18.8597V27.8296C7.29216 28.4756 7.79968 28.9995 8.42612 28.9995C9.05234 28.9995 9.56008 28.4756 9.56008 27.8296V11.0598C9.56008 10.9159 9.67274 10.7997 9.81219 10.7997C9.95142 10.7997 10.0641 10.9159 10.0641 11.0598ZM7.04012 7.68014C8.29222 7.68014 9.30808 6.6321 9.30808 5.33999C9.30808 4.04759 8.29222 3.00013 7.04012 3.00013C5.78752 3.00013 4.7722 4.04759 4.7722 5.33999C4.7722 6.6321 5.78752 7.68014 7.04012 7.68014Z" fill="#434343"/>
</svg>
