<svg width="32" height="32" viewBox="0 0 32 32" fill="none" xmlns="http://www.w3.org/2000/svg">
<path d="M27.3969 14.9474C27.7656 14.911 28.0341 14.5931 27.9965 14.2372C27.4224 8.75587 23.039 4.52196 17.5309 3.8511L17.677 3.30062C17.7605 2.98236 17.6876 2.63974 17.4814 2.38402C17.2849 2.13946 16.9927 2 16.6786 2H15.3274C15.0045 2 14.7062 2.1468 14.5097 2.40281C14.3041 2.67086 14.2418 3.02317 14.3424 3.34524L14.4988 3.84729C8.95361 4.50904 4.55502 8.77113 4.00314 14.2892C3.96761 14.6456 4.23732 14.9624 4.60605 14.9977C4.62791 14.9994 4.64978 15 4.67165 15C5.01335 15 5.30492 14.7496 5.33864 14.414C5.87259 9.07236 10.4574 5.04368 16.0022 5.04368C21.5219 5.04368 26.1039 9.05181 26.6616 14.367C26.6993 14.7237 27.0291 14.9824 27.3969 14.9474ZM15.7286 3.29621H16.2926L16.1714 3.7548C16.1146 3.75422 16.0593 3.74717 16.0022 3.74717C15.9576 3.74717 15.9148 3.75246 15.8704 3.75304L15.7286 3.29621Z" fill="#434343"/>
<path d="M29.3146 17H28.0782H3.74465H2.68508C2.30717 17 2 17.2993 2 17.6678C2 18.0364 2.30717 18.3357 2.68508 18.3357H3.16041C3.46447 19.4389 4.49023 20.2576 5.71796 20.2576H8.32827C9.1812 21.27 11.7201 24.2679 11.7201 24.2679C11.7375 24.2876 11.7558 24.3069 11.7757 24.3256L15.8017 28.0684L16.2073 28.4116L15.6581 28.7831C15.3478 28.9939 15.2706 29.4108 15.4868 29.7125C15.6202 29.8996 15.8337 30 16.0496 30C16.1855 30 16.3218 29.9607 16.4409 29.88L21.736 26.2708L23.6224 27.9971C23.7549 28.1186 23.9237 28.1785 24.0921 28.1785C24.2743 28.1785 24.4567 28.108 24.5914 27.9684C24.8505 27.699 24.8368 27.2763 24.5616 27.0245L22.2085 24.8701C21.9935 24.6739 21.6854 24.6461 21.4347 24.7686C21.3342 24.4496 21.3218 24.111 21.4105 23.7818C21.5535 23.2533 21.8269 22.7587 22.2001 22.353L23.7648 20.6557C23.8675 20.5448 23.9265 20.4039 23.9373 20.2579H26.1061C27.3332 20.2579 28.3584 19.4392 28.6624 18.336H29.3146C29.6935 18.336 30 18.0367 30 17.6681C30 17.2996 29.6931 17 29.3146 17ZM21.1806 21.4611C20.6624 22.0237 20.283 22.7079 20.085 23.4417C19.8858 24.1808 19.9671 24.9503 20.3115 25.6302L17.368 27.6255L16.7248 27.082L12.7515 23.3866C12.5417 23.1399 11.1086 21.4466 10.1039 20.2576H11.1278C11.1278 20.2576 13.4462 22.1861 13.4635 22.1982C14.2377 22.7303 16.0143 23.2037 16.8703 23.2037C18.0828 23.2037 19.2544 22.7055 20.0847 21.8369C20.3627 21.5464 20.619 21.2891 20.8182 21.0911C21.1542 20.757 21.5225 20.5136 21.9119 20.3667C22.0602 20.3117 22.1821 20.2808 22.2802 20.2663L21.1806 21.4611ZM19.0835 20.9257C18.5107 21.5249 17.704 21.8683 16.8703 21.8683C16.2175 21.8683 14.785 21.4542 14.2758 21.1219L13.2377 20.2576H19.7375C19.5495 20.4468 19.3286 20.6696 19.0835 20.9257ZM26.1061 18.9225H22.4142C22.4043 18.9225 22.394 18.9225 22.3832 18.9225H5.71796C5.26001 18.9225 4.85666 18.6879 4.62861 18.3357H27.1942C26.9662 18.6879 26.5641 18.9225 26.1061 18.9225Z" fill="#434343"/>
<path d="M24.5161 12.9699C24.8792 12.8625 25.0818 12.4937 24.9686 12.1473C23.6852 8.21167 20.0485 7.07679 19.8943 7.02977C19.5337 6.92292 19.1475 7.11251 19.0325 7.45776C18.9175 7.80242 19.117 8.17238 19.4782 8.2834C19.6047 8.32269 22.5907 9.2769 23.6538 12.5375C23.746 12.8193 24.0175 13 24.311 13C24.3793 13.0003 24.4485 12.9902 24.5161 12.9699Z" fill="#434343"/>
</svg>
