<svg width="32" height="32" viewBox="0 0 32 32" fill="none" xmlns="http://www.w3.org/2000/svg">
<path d="M22.4945 7.31241H26.5822C26.9083 7.31241 27.1702 7.0415 27.1702 6.71037C27.1702 6.37924 26.9082 6.10833 26.5822 6.10833H22.4945C22.1684 6.10833 21.9065 6.37924 21.9065 6.71037C21.9065 7.0415 22.1685 7.31241 22.4945 7.31241Z" fill="#434343" stroke="#434343" stroke-width="0.1"/>
<path d="M20.663 24.5431H24.8698C25.1957 24.5431 25.4578 24.2723 25.4578 23.9411V6.71067C25.4578 5.1895 24.2517 3.95 22.7664 3.95C21.281 3.95 20.075 5.18956 20.075 6.71067V23.9411C20.075 24.2722 20.3369 24.5431 20.663 24.5431ZM24.2817 6.71067V23.3391H21.2508V6.71067C21.2508 5.85114 21.9319 5.15415 22.7663 5.15415C23.6006 5.15415 24.2817 5.85114 24.2817 6.71067Z" fill="#434343" stroke="#434343" stroke-width="0.1"/>
<path d="M7.3639 27.05H20.6631C20.9891 27.05 21.251 26.7791 21.251 26.448V6.71067C21.251 5.85114 21.9321 5.15415 22.7665 5.15415C23.0924 5.15415 23.3545 4.88324 23.3545 4.55211C23.3545 4.22091 23.0924 3.95 22.7665 3.95H9.46734C7.98194 3.95 6.77593 5.18956 6.77593 6.71067V26.448C6.77593 26.7791 7.03796 27.05 7.3639 27.05ZM20.0751 6.71067V25.8459H7.95188V6.71067C7.95188 5.85114 8.63301 5.15415 9.46734 5.15415H20.5447C20.2486 5.59766 20.0751 6.13379 20.0751 6.71067Z" fill="#434343" stroke="#434343" stroke-width="0.1"/>
<path d="M7.36375 7.31241H5.41762C5.09161 7.31241 4.82964 7.0415 4.82964 6.71037C4.82964 6.37924 5.09154 6.10833 5.41762 6.10833H7.36369C7.6897 6.10833 7.95166 6.37923 7.95167 6.71036L7.36375 7.31241ZM7.36375 7.31241C7.68976 7.31241 7.95173 7.04151 7.95167 6.71037L7.36375 7.31241Z" fill="#434343" stroke="#434343" stroke-width="0.1"/>
<path d="M7.36366 23.9027H16.7129C17.039 23.9027 17.301 23.6318 17.301 23.3007C17.301 22.9696 17.039 22.6987 16.713 22.6987H7.36366C7.03765 22.6987 6.77568 22.9696 6.77568 23.3007C6.77568 23.6318 7.03772 23.9027 7.36366 23.9027Z" fill="#434343" stroke="#434343" stroke-width="0.1"/>
<path d="M7.36366 20.7638H16.7129C17.039 20.7638 17.3009 20.4929 17.301 20.1618C17.301 19.8307 17.039 19.5597 16.713 19.5597H7.36366C7.03765 19.5597 6.77568 19.8307 6.77568 20.1618C6.77568 20.4929 7.03772 20.7638 7.36366 20.7638Z" fill="#434343" stroke="#434343" stroke-width="0.1"/>
<path d="M1.95 6.71055C1.95 7.85609 2.85835 8.79007 3.97768 8.79007C5.09715 8.79007 6.00549 7.8561 6.00549 6.71055C6.00549 5.56501 5.09715 4.63103 3.97768 4.63103C2.85835 4.63103 1.95 5.56501 1.95 6.71055ZM3.12595 6.71055C3.12595 6.22652 3.50929 5.83505 3.97768 5.83505C4.44621 5.83505 4.8296 6.22659 4.8296 6.71055C4.8296 7.19451 4.44621 7.58599 3.97768 7.58599C3.50929 7.58599 3.12595 7.19451 3.12595 6.71055Z" fill="#434343" stroke="#434343" stroke-width="0.1"/>
<path d="M28.0222 5.83517C27.5537 5.83517 27.1703 6.22665 27.1703 6.71067C27.1703 7.19463 27.5537 7.58611 28.0222 7.58611C28.4908 7.58611 28.8742 7.19463 28.8742 6.71068L28.0222 5.83517ZM28.0222 5.83517C28.4908 5.83517 28.8741 6.22671 28.8742 6.71067L28.0222 5.83517ZM25.9944 6.71067C25.9944 7.85622 26.9028 8.79019 28.0222 8.79019C29.1417 8.79019 30.0501 7.85622 30.0501 6.71067C30.0501 5.56513 29.1417 4.63115 28.0222 4.63115C26.9028 4.63115 25.9944 5.56513 25.9944 6.71067Z" fill="#434343" stroke="#434343" stroke-width="0.1"/>
<path d="M22.1785 23.941C22.1785 24.2721 22.4405 24.543 22.7665 24.543C23.0924 24.543 23.3545 24.2722 23.3545 23.941V15.0497C23.3545 14.7186 23.0924 14.4477 22.7665 14.4477C22.4404 14.4477 22.1785 14.7186 22.1785 15.0497V23.941Z" fill="#434343" stroke="#434343" stroke-width="0.1"/>
</svg>
