<svg width="22" height="28" viewBox="0 0 22 28" fill="none" xmlns="http://www.w3.org/2000/svg">
<path fill-rule="evenodd" clip-rule="evenodd" d="M14.1662 6.3C14.0744 2.8 11.0918 0 7.42086 0C3.65815 0 0.629639 2.8875 0.629639 6.43125V27.125C0.629639 27.6063 1.04262 28 1.54737 28C2.05212 28 2.4651 27.6063 2.4651 27.125V6.43125C2.4651 3.85 4.71355 1.75 7.42086 1.75C10.0823 1.75 12.2389 3.80625 12.3307 6.3C8.38447 6.7375 5.26418 9.84375 5.17241 13.7375C5.17241 13.9563 5.26418 14.2188 5.44773 14.3938C5.63128 14.5688 5.86071 14.6562 6.09014 14.6562H20.4526C20.6821 14.6562 20.9574 14.5688 21.0951 14.3938C21.2786 14.2188 21.3704 14 21.3704 13.7375C21.2327 9.84375 18.1124 6.7375 14.1662 6.3ZM7.09965 12.9062C7.65029 10.1062 10.1741 8.00625 13.2485 8.00625C16.3229 8.00625 18.8925 10.1062 19.3973 12.9062H7.09965ZM9.57469 16C9.25542 16 9 16.2554 9 16.5747V20.4378C9 20.7571 9.25542 21.0125 9.57469 21.0125C9.89396 21.0125 10.1494 20.7571 10.1494 20.4378V16.5747C10.1494 16.2554 9.89396 16 9.57469 16ZM11.5857 16.5747C11.5857 16.2554 11.8411 16 12.1604 16C12.4797 16 12.7351 16.2554 12.7351 16.5747V20.4698C12.7351 20.789 12.4797 21.0125 12.1604 21.0125C11.8411 21.0125 11.5857 20.7571 11.5857 20.4378V16.5747ZM14.7149 16C14.3957 16 14.1403 16.2554 14.1403 16.5747V20.4378C14.1403 20.7571 14.3957 21.0125 14.7149 21.0125C15.0342 21.0125 15.2896 20.789 15.2896 20.4698V16.5747C15.2896 16.2554 15.0342 16 14.7149 16ZM16.7268 16.5747C16.7268 16.2554 16.9822 16 17.3015 16C17.6208 16 17.8762 16.2554 17.8762 16.5747V20.4698C17.8762 20.789 17.6208 21.0125 17.3015 21.0125C16.9822 21.0125 16.7268 20.7571 16.7268 20.4378V16.5747Z" fill="#434343"/>
</svg>
