<svg width="32" height="32" viewBox="0 0 32 32" fill="none" xmlns="http://www.w3.org/2000/svg">
<path d="M29.8926 13.4626C29.8027 13.3262 29.6665 13.2355 29.5155 13.212C29.4882 13.2076 28.833 13.107 27.8216 13.107C26.9309 13.107 25.8753 13.1842 24.7657 13.4208C24.807 10.3468 24.0102 7.869 23.9595 7.71468C23.907 7.55639 23.7989 7.42753 23.6594 7.35872C23.5196 7.28992 23.3614 7.28634 23.2191 7.34997C23.0926 7.40645 21.2214 8.26115 19.3362 10.0255C18.0451 7.73855 16.4734 6.25027 16.3627 6.14646C16.1528 5.95118 15.8462 5.95118 15.6363 6.14646C15.5252 6.25027 13.9538 7.73815 12.6634 10.0251C10.7786 8.26036 8.90742 7.40645 8.7809 7.34957C8.63857 7.28634 8.48042 7.28952 8.3406 7.35832C8.20115 7.42673 8.09296 7.55559 8.04048 7.71429C7.98944 7.8686 7.19295 10.3464 7.23429 13.4204C6.12473 13.1838 5.0691 13.1066 4.17843 13.1066C3.16737 13.1066 2.51177 13.2072 2.48445 13.2116C2.33349 13.2351 2.19727 13.3258 2.10741 13.4622C2.01792 13.599 1.98197 13.77 2.00857 13.9363C2.04811 14.1801 3.00167 19.9355 6.90289 23.072C8.67343 24.4958 10.6233 25.2924 12.2929 25.654C12.9211 25.858 14.3438 26 15.9996 26C17.6537 26 19.0738 25.8584 19.7039 25.6552C21.3742 25.2932 23.3251 24.497 25.0975 23.072C28.9987 19.9355 29.9526 14.1805 29.9914 13.9371C30.018 13.7708 29.9821 13.5994 29.8926 13.4626ZM23.0825 8.7941C23.4685 10.3349 24.2269 14.3292 22.8201 17.8268C21.8295 20.2887 20.2923 22.0757 18.9958 23.1567C20.1144 21.3204 21.0392 18.732 21.0392 15.9408C21.0392 14.1852 20.5593 12.5522 19.9084 11.1407C21.133 9.96023 22.3849 9.18029 23.0825 8.7941ZM16 7.46929C17.0334 8.5674 19.9124 11.9823 19.9124 15.9412C19.9124 20.8336 16.7918 24.6346 15.9996 24.635C15.2082 24.6346 12.0884 20.8328 12.0884 15.9408C12.0884 11.991 14.9681 8.56899 16 7.46929ZM8.91892 8.7945C9.61693 9.18069 10.8681 9.96063 12.0923 11.1411C11.4414 12.5526 10.9615 14.1856 10.9615 15.9408C10.9615 18.7324 11.8856 21.3196 13.0042 23.1563C11.7081 22.0753 10.1708 20.2883 9.18058 17.8268C7.77738 14.3392 8.53397 10.3381 8.91892 8.7945ZM3.25686 14.3845C3.50415 14.3674 3.81685 14.3535 4.17879 14.3535C4.95911 14.3535 6.08196 14.4235 7.30294 14.7162C7.41472 15.9022 7.66991 17.1367 8.15154 18.3339C9.25283 21.0722 11.0838 23.2346 12.6994 24.4723C11.1344 24.1653 9.26469 23.4307 7.5646 22.0637C4.77293 19.8182 3.62024 15.9328 3.25686 14.3845ZM24.4358 22.0637C22.736 23.4307 20.8656 24.1649 19.3006 24.4723C20.9166 23.235 22.7475 21.0726 23.8488 18.3339C24.3304 17.1371 24.586 15.9026 24.6974 14.7162C25.9184 14.4235 27.0412 14.3535 27.8216 14.3535C28.1842 14.3535 28.4973 14.3674 28.7442 14.3849C28.3833 15.9316 27.2353 19.8122 24.4358 22.0637Z" fill="#434343"/>
</svg>
