<svg width="33" height="32" viewBox="0 0 33 32" fill="none" xmlns="http://www.w3.org/2000/svg">
<path d="M31.2202 29.168L31.2214 29.1685C31.2977 29.201 31.3797 29.2178 31.4626 29.2179C31.5466 29.2179 31.6297 29.2009 31.7068 29.1676C31.784 29.1344 31.8535 29.0858 31.9113 29.0247C31.969 28.9636 32.0136 28.8914 32.0425 28.8125C32.0714 28.7335 32.0839 28.6495 32.0793 28.5656C32.0746 28.4816 32.053 28.3995 32.0156 28.3242C31.9782 28.249 31.9258 28.1821 31.8617 28.1277C31.7983 28.074 31.7247 28.0336 31.6454 28.0091L31.6434 28.0083L31.6304 28.0037L31.5798 27.9859C31.5352 27.9703 31.4689 27.9475 31.3819 27.9186C31.2078 27.8608 30.9507 27.7783 30.6178 27.6793C29.952 27.4815 28.9829 27.2178 27.7681 26.9542C25.3388 26.4271 21.9261 25.9 17.9917 25.9L17.9777 25.9L17.976 25.9L16.7945 25.9192L16.7934 25.9192C13.1691 26.0172 10.056 26.5394 7.84869 27.0373C6.74495 27.2862 5.86748 27.5291 5.26558 27.7099C4.96463 27.8003 4.73255 27.8751 4.57551 27.9275C4.497 27.9537 4.43723 27.9742 4.397 27.9882L4.3514 28.0043L4.33976 28.0085L4.33844 28.0089C4.25874 28.0331 4.18476 28.0732 4.12094 28.1267C4.05634 28.1809 4.00351 28.2477 3.96569 28.3231C3.92788 28.3985 3.90587 28.4809 3.90102 28.5651C3.89618 28.6493 3.90859 28.7337 3.9375 28.8129C3.96642 28.8922 4.01123 28.9646 4.06917 29.0259C4.1271 29.0871 4.19696 29.1359 4.27446 29.1691C4.35193 29.2023 4.43538 29.2192 4.51967 29.2189C4.60282 29.2185 4.685 29.2013 4.76129 29.1684L4.76229 29.168L4.77417 29.1638L4.82196 29.147C4.86439 29.1322 4.92782 29.1105 5.01139 29.0827C5.17853 29.0273 5.4262 28.948 5.74752 28.8527C6.39018 28.6622 7.32733 28.4079 8.50383 28.1536C10.857 27.645 14.1666 27.1363 17.9917 27.1363C21.8169 27.1363 25.1262 27.645 27.4791 28.1536C28.6555 28.4079 29.5925 28.6622 30.2351 28.8527C30.5564 28.948 30.804 29.0273 30.9711 29.0827C31.0547 29.1105 31.1181 29.1322 31.1605 29.147L31.2083 29.1638L31.2202 29.168Z" fill="#434343" stroke="#434343" stroke-width="0.2"/>
<mask id="path-2-outside-1_101:3183" maskUnits="userSpaceOnUse" x="20" y="1" width="11" height="11" fill="black">
<rect fill="white" x="20" y="1" width="11" height="11"/>
<path d="M25.4655 2.00009C25.4066 2.00123 25.3485 2.01401 25.2945 2.03765C25.2405 2.06128 25.1917 2.09531 25.1508 2.13784C25.11 2.18036 25.0779 2.23049 25.0564 2.28543C25.035 2.34037 25.0245 2.39901 25.0257 2.45799V3.3563C25.0243 3.41612 25.0349 3.47558 25.0569 3.53124C25.0788 3.5869 25.1117 3.63761 25.1535 3.68039C25.1952 3.72317 25.2451 3.75717 25.3002 3.78037C25.3553 3.80358 25.4145 3.81555 25.4742 3.81555C25.534 3.81555 25.5932 3.80358 25.6482 3.78037C25.7033 3.75717 25.7532 3.72317 25.795 3.68039C25.8368 3.63761 25.8696 3.5869 25.8916 3.53124C25.9135 3.47558 25.9241 3.41612 25.9228 3.3563V2.45799C25.924 2.39753 25.913 2.33748 25.8904 2.28139C25.8679 2.2253 25.8342 2.17433 25.7915 2.13157C25.7488 2.08881 25.6979 2.05511 25.6419 2.03252C25.5859 2.00992 25.5259 1.9989 25.4655 2.00009ZM22.6145 3.187C22.5251 3.18701 22.4377 3.2138 22.3635 3.26393C22.2894 3.31405 22.2319 3.38522 22.1985 3.4683C22.165 3.55138 22.1572 3.64253 22.1759 3.73012C22.1946 3.81771 22.239 3.89772 22.3035 3.95983L22.9361 4.5932C22.9773 4.63642 23.0267 4.67098 23.0814 4.69484C23.1361 4.7187 23.1951 4.73136 23.2548 4.73214C23.3144 4.73291 23.3737 4.72178 23.429 4.69935C23.4843 4.67691 23.5346 4.64362 23.5769 4.60149C23.6192 4.55935 23.6527 4.50921 23.6754 4.45394C23.6982 4.39868 23.7096 4.33943 23.7092 4.27967C23.7087 4.21991 23.6964 4.16084 23.6729 4.10592C23.6493 4.051 23.6151 4.00133 23.5722 3.95983L22.9361 3.32293C22.8943 3.27991 22.8443 3.24573 22.7891 3.22238C22.7338 3.19902 22.6745 3.187 22.6145 3.187ZM28.3199 3.187C28.2037 3.1907 28.0934 3.23941 28.0124 3.32293L27.3763 3.95983C27.3334 4.00133 27.2992 4.051 27.2756 4.10592C27.2521 4.16084 27.2398 4.21992 27.2393 4.27967C27.2389 4.33943 27.2503 4.39868 27.2731 4.45394C27.2958 4.50921 27.3293 4.55935 27.3716 4.60149C27.4139 4.64362 27.4642 4.67686 27.5195 4.69929C27.5748 4.72173 27.6341 4.73291 27.6937 4.73214C27.7534 4.73137 27.8123 4.7187 27.867 4.69484C27.9218 4.67098 27.9712 4.63642 28.0124 4.5932L28.645 3.95983C28.7104 3.8969 28.7552 3.81559 28.7735 3.72665C28.7918 3.63771 28.7828 3.54531 28.7476 3.46162C28.7124 3.37792 28.6527 3.30689 28.5763 3.25787C28.5 3.20884 28.4106 3.18412 28.3199 3.187ZM25.476 4.70199C24.4903 4.70199 23.6808 5.51252 23.6808 6.49942C23.6808 7.48633 24.4903 8.29686 25.476 8.29686C26.4617 8.29686 27.2668 7.48633 27.2668 6.49942C27.2668 5.51252 26.4617 4.70199 25.476 4.70199ZM25.476 5.60112C25.9768 5.60112 26.3696 5.998 26.3696 6.49942C26.3696 7.00086 25.9768 7.39772 25.476 7.39772C24.9752 7.39772 24.5788 7.00086 24.5788 6.49942C24.5788 5.998 24.9752 5.60112 25.476 5.60112ZM22.3824 6.05027C22.366 6.04994 22.3496 6.05052 22.3333 6.05198H21.4361C21.4218 6.05129 21.4075 6.05129 21.3932 6.05198C21.281 6.06597 21.1782 6.12189 21.1053 6.20854C21.0325 6.29518 20.9951 6.40615 21.0005 6.51926C21.0059 6.63237 21.0538 6.73928 21.1346 6.81854C21.2154 6.8978 21.3231 6.94361 21.4361 6.94676H22.3333C22.3932 6.952 22.4536 6.94508 22.5108 6.9265C22.568 6.90792 22.6208 6.87804 22.6663 6.83859C22.7117 6.79914 22.7487 6.75092 22.7752 6.69685C22.8017 6.64278 22.817 6.58394 22.8203 6.52382C22.8236 6.4637 22.8148 6.40355 22.7944 6.34691C22.774 6.29026 22.7424 6.23832 22.7015 6.19413C22.6607 6.14995 22.6114 6.11442 22.5566 6.08969C22.5017 6.06497 22.4425 6.05162 22.3824 6.05027ZM29.5614 6.05027C29.545 6.04994 29.5287 6.05052 29.5123 6.05198H28.6152C28.5997 6.05118 28.5842 6.05118 28.5687 6.05198C28.4563 6.06614 28.3534 6.12237 28.2807 6.20936C28.208 6.29636 28.1708 6.40768 28.1767 6.52097C28.1826 6.63426 28.2311 6.74112 28.3124 6.8201C28.3937 6.89908 28.5019 6.94434 28.6152 6.94676H29.5123C29.5722 6.952 29.6326 6.94508 29.6898 6.9265C29.747 6.90792 29.7999 6.87804 29.8453 6.83859C29.8908 6.79914 29.9278 6.75092 29.9543 6.69685C29.9807 6.64278 29.996 6.58394 29.9993 6.52382C30.0026 6.4637 29.9938 6.40355 29.9734 6.34691C29.953 6.29026 29.9214 6.23832 29.8806 6.19413C29.8397 6.14995 29.7904 6.11442 29.7356 6.08969C29.6808 6.06497 29.6215 6.05162 29.5614 6.05027ZM27.6909 8.26795C27.6754 8.26771 27.6599 8.26824 27.6444 8.26961C27.5593 8.27807 27.4784 8.31076 27.4112 8.36374C27.344 8.41671 27.2934 8.48778 27.2652 8.56863C27.237 8.64947 27.2325 8.73671 27.2522 8.82004C27.2719 8.90336 27.315 8.97933 27.3763 9.03897L28.0124 9.67581C28.0539 9.71879 28.1035 9.75307 28.1583 9.77662C28.2132 9.80017 28.2721 9.81255 28.3318 9.81299C28.3915 9.81343 28.4507 9.8019 28.5058 9.77916C28.561 9.75642 28.6111 9.72289 28.6532 9.68052C28.6953 9.63815 28.7285 9.58784 28.7509 9.53246C28.7733 9.47708 28.7845 9.41778 28.7837 9.35803C28.7829 9.29829 28.7703 9.23927 28.7464 9.18449C28.7226 9.1297 28.6881 9.08024 28.645 9.03897L28.0124 8.40559C27.9707 8.36226 27.9208 8.32776 27.8656 8.30411C27.8103 8.28046 27.7509 8.26817 27.6909 8.26795ZM23.2436 8.26961C23.1274 8.27331 23.0171 8.32208 22.9361 8.40559L22.3035 9.03897C22.2604 9.08024 22.2259 9.1297 22.202 9.18449C22.1782 9.23927 22.1656 9.29829 22.1648 9.35803C22.164 9.41778 22.1752 9.47708 22.1976 9.53246C22.22 9.58784 22.2532 9.63816 22.2953 9.68052C22.3374 9.72289 22.3875 9.75642 22.4426 9.77916C22.4978 9.8019 22.557 9.81342 22.6167 9.81299C22.6763 9.81255 22.7353 9.80016 22.7902 9.77662C22.845 9.75307 22.8946 9.71884 22.9361 9.67586L23.5722 9.03897C23.6365 8.97562 23.6803 8.8943 23.6978 8.80563C23.7153 8.71697 23.7057 8.62509 23.6702 8.542C23.6347 8.4589 23.575 8.38844 23.4989 8.33985C23.4228 8.29126 23.3338 8.26677 23.2436 8.26961ZM25.4655 9.18811C25.3471 9.19043 25.2345 9.23946 25.1521 9.32457C25.0697 9.40968 25.0243 9.52393 25.0257 9.64244V10.5407C25.0243 10.6006 25.0349 10.66 25.0569 10.7157C25.0788 10.7713 25.1117 10.8221 25.1535 10.8648C25.1952 10.9076 25.2451 10.9416 25.3002 10.9648C25.3553 10.988 25.4145 11 25.4742 11C25.534 11 25.5932 10.988 25.6482 10.9648C25.7033 10.9416 25.7532 10.9076 25.795 10.8648C25.8368 10.8221 25.8696 10.7713 25.8916 10.7157C25.9135 10.66 25.9241 10.6006 25.9228 10.5407V9.64244C25.9235 9.58228 25.9122 9.52261 25.8894 9.46693C25.8666 9.41125 25.8329 9.36068 25.7902 9.3183C25.7476 9.27592 25.6968 9.24256 25.6411 9.22018C25.5853 9.1978 25.5256 9.18694 25.4655 9.18811Z"/>
</mask>
<path d="M25.4655 2.00009C25.4066 2.00123 25.3485 2.01401 25.2945 2.03765C25.2405 2.06128 25.1917 2.09531 25.1508 2.13784C25.11 2.18036 25.0779 2.23049 25.0564 2.28543C25.035 2.34037 25.0245 2.39901 25.0257 2.45799V3.3563C25.0243 3.41612 25.0349 3.47558 25.0569 3.53124C25.0788 3.5869 25.1117 3.63761 25.1535 3.68039C25.1952 3.72317 25.2451 3.75717 25.3002 3.78037C25.3553 3.80358 25.4145 3.81555 25.4742 3.81555C25.534 3.81555 25.5932 3.80358 25.6482 3.78037C25.7033 3.75717 25.7532 3.72317 25.795 3.68039C25.8368 3.63761 25.8696 3.5869 25.8916 3.53124C25.9135 3.47558 25.9241 3.41612 25.9228 3.3563V2.45799C25.924 2.39753 25.913 2.33748 25.8904 2.28139C25.8679 2.2253 25.8342 2.17433 25.7915 2.13157C25.7488 2.08881 25.6979 2.05511 25.6419 2.03252C25.5859 2.00992 25.5259 1.9989 25.4655 2.00009ZM22.6145 3.187C22.5251 3.18701 22.4377 3.2138 22.3635 3.26393C22.2894 3.31405 22.2319 3.38522 22.1985 3.4683C22.165 3.55138 22.1572 3.64253 22.1759 3.73012C22.1946 3.81771 22.239 3.89772 22.3035 3.95983L22.9361 4.5932C22.9773 4.63642 23.0267 4.67098 23.0814 4.69484C23.1361 4.7187 23.1951 4.73136 23.2548 4.73214C23.3144 4.73291 23.3737 4.72178 23.429 4.69935C23.4843 4.67691 23.5346 4.64362 23.5769 4.60149C23.6192 4.55935 23.6527 4.50921 23.6754 4.45394C23.6982 4.39868 23.7096 4.33943 23.7092 4.27967C23.7087 4.21991 23.6964 4.16084 23.6729 4.10592C23.6493 4.051 23.6151 4.00133 23.5722 3.95983L22.9361 3.32293C22.8943 3.27991 22.8443 3.24573 22.7891 3.22238C22.7338 3.19902 22.6745 3.187 22.6145 3.187ZM28.3199 3.187C28.2037 3.1907 28.0934 3.23941 28.0124 3.32293L27.3763 3.95983C27.3334 4.00133 27.2992 4.051 27.2756 4.10592C27.2521 4.16084 27.2398 4.21992 27.2393 4.27967C27.2389 4.33943 27.2503 4.39868 27.2731 4.45394C27.2958 4.50921 27.3293 4.55935 27.3716 4.60149C27.4139 4.64362 27.4642 4.67686 27.5195 4.69929C27.5748 4.72173 27.6341 4.73291 27.6937 4.73214C27.7534 4.73137 27.8123 4.7187 27.867 4.69484C27.9218 4.67098 27.9712 4.63642 28.0124 4.5932L28.645 3.95983C28.7104 3.8969 28.7552 3.81559 28.7735 3.72665C28.7918 3.63771 28.7828 3.54531 28.7476 3.46162C28.7124 3.37792 28.6527 3.30689 28.5763 3.25787C28.5 3.20884 28.4106 3.18412 28.3199 3.187ZM25.476 4.70199C24.4903 4.70199 23.6808 5.51252 23.6808 6.49942C23.6808 7.48633 24.4903 8.29686 25.476 8.29686C26.4617 8.29686 27.2668 7.48633 27.2668 6.49942C27.2668 5.51252 26.4617 4.70199 25.476 4.70199ZM25.476 5.60112C25.9768 5.60112 26.3696 5.998 26.3696 6.49942C26.3696 7.00086 25.9768 7.39772 25.476 7.39772C24.9752 7.39772 24.5788 7.00086 24.5788 6.49942C24.5788 5.998 24.9752 5.60112 25.476 5.60112ZM22.3824 6.05027C22.366 6.04994 22.3496 6.05052 22.3333 6.05198H21.4361C21.4218 6.05129 21.4075 6.05129 21.3932 6.05198C21.281 6.06597 21.1782 6.12189 21.1053 6.20854C21.0325 6.29518 20.9951 6.40615 21.0005 6.51926C21.0059 6.63237 21.0538 6.73928 21.1346 6.81854C21.2154 6.8978 21.3231 6.94361 21.4361 6.94676H22.3333C22.3932 6.952 22.4536 6.94508 22.5108 6.9265C22.568 6.90792 22.6208 6.87804 22.6663 6.83859C22.7117 6.79914 22.7487 6.75092 22.7752 6.69685C22.8017 6.64278 22.817 6.58394 22.8203 6.52382C22.8236 6.4637 22.8148 6.40355 22.7944 6.34691C22.774 6.29026 22.7424 6.23832 22.7015 6.19413C22.6607 6.14995 22.6114 6.11442 22.5566 6.08969C22.5017 6.06497 22.4425 6.05162 22.3824 6.05027ZM29.5614 6.05027C29.545 6.04994 29.5287 6.05052 29.5123 6.05198H28.6152C28.5997 6.05118 28.5842 6.05118 28.5687 6.05198C28.4563 6.06614 28.3534 6.12237 28.2807 6.20936C28.208 6.29636 28.1708 6.40768 28.1767 6.52097C28.1826 6.63426 28.2311 6.74112 28.3124 6.8201C28.3937 6.89908 28.5019 6.94434 28.6152 6.94676H29.5123C29.5722 6.952 29.6326 6.94508 29.6898 6.9265C29.747 6.90792 29.7999 6.87804 29.8453 6.83859C29.8908 6.79914 29.9278 6.75092 29.9543 6.69685C29.9807 6.64278 29.996 6.58394 29.9993 6.52382C30.0026 6.4637 29.9938 6.40355 29.9734 6.34691C29.953 6.29026 29.9214 6.23832 29.8806 6.19413C29.8397 6.14995 29.7904 6.11442 29.7356 6.08969C29.6808 6.06497 29.6215 6.05162 29.5614 6.05027ZM27.6909 8.26795C27.6754 8.26771 27.6599 8.26824 27.6444 8.26961C27.5593 8.27807 27.4784 8.31076 27.4112 8.36374C27.344 8.41671 27.2934 8.48778 27.2652 8.56863C27.237 8.64947 27.2325 8.73671 27.2522 8.82004C27.2719 8.90336 27.315 8.97933 27.3763 9.03897L28.0124 9.67581C28.0539 9.71879 28.1035 9.75307 28.1583 9.77662C28.2132 9.80017 28.2721 9.81255 28.3318 9.81299C28.3915 9.81343 28.4507 9.8019 28.5058 9.77916C28.561 9.75642 28.6111 9.72289 28.6532 9.68052C28.6953 9.63815 28.7285 9.58784 28.7509 9.53246C28.7733 9.47708 28.7845 9.41778 28.7837 9.35803C28.7829 9.29829 28.7703 9.23927 28.7464 9.18449C28.7226 9.1297 28.6881 9.08024 28.645 9.03897L28.0124 8.40559C27.9707 8.36226 27.9208 8.32776 27.8656 8.30411C27.8103 8.28046 27.7509 8.26817 27.6909 8.26795ZM23.2436 8.26961C23.1274 8.27331 23.0171 8.32208 22.9361 8.40559L22.3035 9.03897C22.2604 9.08024 22.2259 9.1297 22.202 9.18449C22.1782 9.23927 22.1656 9.29829 22.1648 9.35803C22.164 9.41778 22.1752 9.47708 22.1976 9.53246C22.22 9.58784 22.2532 9.63816 22.2953 9.68052C22.3374 9.72289 22.3875 9.75642 22.4426 9.77916C22.4978 9.8019 22.557 9.81342 22.6167 9.81299C22.6763 9.81255 22.7353 9.80016 22.7902 9.77662C22.845 9.75307 22.8946 9.71884 22.9361 9.67586L23.5722 9.03897C23.6365 8.97562 23.6803 8.8943 23.6978 8.80563C23.7153 8.71697 23.7057 8.62509 23.6702 8.542C23.6347 8.4589 23.575 8.38844 23.4989 8.33985C23.4228 8.29126 23.3338 8.26677 23.2436 8.26961ZM25.4655 9.18811C25.3471 9.19043 25.2345 9.23946 25.1521 9.32457C25.0697 9.40968 25.0243 9.52393 25.0257 9.64244V10.5407C25.0243 10.6006 25.0349 10.66 25.0569 10.7157C25.0788 10.7713 25.1117 10.8221 25.1535 10.8648C25.1952 10.9076 25.2451 10.9416 25.3002 10.9648C25.3553 10.988 25.4145 11 25.4742 11C25.534 11 25.5932 10.988 25.6482 10.9648C25.7033 10.9416 25.7532 10.9076 25.795 10.8648C25.8368 10.8221 25.8696 10.7713 25.8916 10.7157C25.9135 10.66 25.9241 10.6006 25.9228 10.5407V9.64244C25.9235 9.58228 25.9122 9.52261 25.8894 9.46693C25.8666 9.41125 25.8329 9.36068 25.7902 9.3183C25.7476 9.27592 25.6968 9.24256 25.6411 9.22018C25.5853 9.1978 25.5256 9.18694 25.4655 9.18811Z" fill="#434343"/>
<path d="M25.4655 2.00009C25.4066 2.00123 25.3485 2.01401 25.2945 2.03765C25.2405 2.06128 25.1917 2.09531 25.1508 2.13784C25.11 2.18036 25.0779 2.23049 25.0564 2.28543C25.035 2.34037 25.0245 2.39901 25.0257 2.45799V3.3563C25.0243 3.41612 25.0349 3.47558 25.0569 3.53124C25.0788 3.5869 25.1117 3.63761 25.1535 3.68039C25.1952 3.72317 25.2451 3.75717 25.3002 3.78037C25.3553 3.80358 25.4145 3.81555 25.4742 3.81555C25.534 3.81555 25.5932 3.80358 25.6482 3.78037C25.7033 3.75717 25.7532 3.72317 25.795 3.68039C25.8368 3.63761 25.8696 3.5869 25.8916 3.53124C25.9135 3.47558 25.9241 3.41612 25.9228 3.3563V2.45799C25.924 2.39753 25.913 2.33748 25.8904 2.28139C25.8679 2.2253 25.8342 2.17433 25.7915 2.13157C25.7488 2.08881 25.6979 2.05511 25.6419 2.03252C25.5859 2.00992 25.5259 1.9989 25.4655 2.00009ZM22.6145 3.187C22.5251 3.18701 22.4377 3.2138 22.3635 3.26393C22.2894 3.31405 22.2319 3.38522 22.1985 3.4683C22.165 3.55138 22.1572 3.64253 22.1759 3.73012C22.1946 3.81771 22.239 3.89772 22.3035 3.95983L22.9361 4.5932C22.9773 4.63642 23.0267 4.67098 23.0814 4.69484C23.1361 4.7187 23.1951 4.73136 23.2548 4.73214C23.3144 4.73291 23.3737 4.72178 23.429 4.69935C23.4843 4.67691 23.5346 4.64362 23.5769 4.60149C23.6192 4.55935 23.6527 4.50921 23.6754 4.45394C23.6982 4.39868 23.7096 4.33943 23.7092 4.27967C23.7087 4.21991 23.6964 4.16084 23.6729 4.10592C23.6493 4.051 23.6151 4.00133 23.5722 3.95983L22.9361 3.32293C22.8943 3.27991 22.8443 3.24573 22.7891 3.22238C22.7338 3.19902 22.6745 3.187 22.6145 3.187ZM28.3199 3.187C28.2037 3.1907 28.0934 3.23941 28.0124 3.32293L27.3763 3.95983C27.3334 4.00133 27.2992 4.051 27.2756 4.10592C27.2521 4.16084 27.2398 4.21992 27.2393 4.27967C27.2389 4.33943 27.2503 4.39868 27.2731 4.45394C27.2958 4.50921 27.3293 4.55935 27.3716 4.60149C27.4139 4.64362 27.4642 4.67686 27.5195 4.69929C27.5748 4.72173 27.6341 4.73291 27.6937 4.73214C27.7534 4.73137 27.8123 4.7187 27.867 4.69484C27.9218 4.67098 27.9712 4.63642 28.0124 4.5932L28.645 3.95983C28.7104 3.8969 28.7552 3.81559 28.7735 3.72665C28.7918 3.63771 28.7828 3.54531 28.7476 3.46162C28.7124 3.37792 28.6527 3.30689 28.5763 3.25787C28.5 3.20884 28.4106 3.18412 28.3199 3.187ZM25.476 4.70199C24.4903 4.70199 23.6808 5.51252 23.6808 6.49942C23.6808 7.48633 24.4903 8.29686 25.476 8.29686C26.4617 8.29686 27.2668 7.48633 27.2668 6.49942C27.2668 5.51252 26.4617 4.70199 25.476 4.70199ZM25.476 5.60112C25.9768 5.60112 26.3696 5.998 26.3696 6.49942C26.3696 7.00086 25.9768 7.39772 25.476 7.39772C24.9752 7.39772 24.5788 7.00086 24.5788 6.49942C24.5788 5.998 24.9752 5.60112 25.476 5.60112ZM22.3824 6.05027C22.366 6.04994 22.3496 6.05052 22.3333 6.05198H21.4361C21.4218 6.05129 21.4075 6.05129 21.3932 6.05198C21.281 6.06597 21.1782 6.12189 21.1053 6.20854C21.0325 6.29518 20.9951 6.40615 21.0005 6.51926C21.0059 6.63237 21.0538 6.73928 21.1346 6.81854C21.2154 6.8978 21.3231 6.94361 21.4361 6.94676H22.3333C22.3932 6.952 22.4536 6.94508 22.5108 6.9265C22.568 6.90792 22.6208 6.87804 22.6663 6.83859C22.7117 6.79914 22.7487 6.75092 22.7752 6.69685C22.8017 6.64278 22.817 6.58394 22.8203 6.52382C22.8236 6.4637 22.8148 6.40355 22.7944 6.34691C22.774 6.29026 22.7424 6.23832 22.7015 6.19413C22.6607 6.14995 22.6114 6.11442 22.5566 6.08969C22.5017 6.06497 22.4425 6.05162 22.3824 6.05027ZM29.5614 6.05027C29.545 6.04994 29.5287 6.05052 29.5123 6.05198H28.6152C28.5997 6.05118 28.5842 6.05118 28.5687 6.05198C28.4563 6.06614 28.3534 6.12237 28.2807 6.20936C28.208 6.29636 28.1708 6.40768 28.1767 6.52097C28.1826 6.63426 28.2311 6.74112 28.3124 6.8201C28.3937 6.89908 28.5019 6.94434 28.6152 6.94676H29.5123C29.5722 6.952 29.6326 6.94508 29.6898 6.9265C29.747 6.90792 29.7999 6.87804 29.8453 6.83859C29.8908 6.79914 29.9278 6.75092 29.9543 6.69685C29.9807 6.64278 29.996 6.58394 29.9993 6.52382C30.0026 6.4637 29.9938 6.40355 29.9734 6.34691C29.953 6.29026 29.9214 6.23832 29.8806 6.19413C29.8397 6.14995 29.7904 6.11442 29.7356 6.08969C29.6808 6.06497 29.6215 6.05162 29.5614 6.05027ZM27.6909 8.26795C27.6754 8.26771 27.6599 8.26824 27.6444 8.26961C27.5593 8.27807 27.4784 8.31076 27.4112 8.36374C27.344 8.41671 27.2934 8.48778 27.2652 8.56863C27.237 8.64947 27.2325 8.73671 27.2522 8.82004C27.2719 8.90336 27.315 8.97933 27.3763 9.03897L28.0124 9.67581C28.0539 9.71879 28.1035 9.75307 28.1583 9.77662C28.2132 9.80017 28.2721 9.81255 28.3318 9.81299C28.3915 9.81343 28.4507 9.8019 28.5058 9.77916C28.561 9.75642 28.6111 9.72289 28.6532 9.68052C28.6953 9.63815 28.7285 9.58784 28.7509 9.53246C28.7733 9.47708 28.7845 9.41778 28.7837 9.35803C28.7829 9.29829 28.7703 9.23927 28.7464 9.18449C28.7226 9.1297 28.6881 9.08024 28.645 9.03897L28.0124 8.40559C27.9707 8.36226 27.9208 8.32776 27.8656 8.30411C27.8103 8.28046 27.7509 8.26817 27.6909 8.26795ZM23.2436 8.26961C23.1274 8.27331 23.0171 8.32208 22.9361 8.40559L22.3035 9.03897C22.2604 9.08024 22.2259 9.1297 22.202 9.18449C22.1782 9.23927 22.1656 9.29829 22.1648 9.35803C22.164 9.41778 22.1752 9.47708 22.1976 9.53246C22.22 9.58784 22.2532 9.63816 22.2953 9.68052C22.3374 9.72289 22.3875 9.75642 22.4426 9.77916C22.4978 9.8019 22.557 9.81342 22.6167 9.81299C22.6763 9.81255 22.7353 9.80016 22.7902 9.77662C22.845 9.75307 22.8946 9.71884 22.9361 9.67586L23.5722 9.03897C23.6365 8.97562 23.6803 8.8943 23.6978 8.80563C23.7153 8.71697 23.7057 8.62509 23.6702 8.542C23.6347 8.4589 23.575 8.38844 23.4989 8.33985C23.4228 8.29126 23.3338 8.26677 23.2436 8.26961ZM25.4655 9.18811C25.3471 9.19043 25.2345 9.23946 25.1521 9.32457C25.0697 9.40968 25.0243 9.52393 25.0257 9.64244V10.5407C25.0243 10.6006 25.0349 10.66 25.0569 10.7157C25.0788 10.7713 25.1117 10.8221 25.1535 10.8648C25.1952 10.9076 25.2451 10.9416 25.3002 10.9648C25.3553 10.988 25.4145 11 25.4742 11C25.534 11 25.5932 10.988 25.6482 10.9648C25.7033 10.9416 25.7532 10.9076 25.795 10.8648C25.8368 10.8221 25.8696 10.7713 25.8916 10.7157C25.9135 10.66 25.9241 10.6006 25.9228 10.5407V9.64244C25.9235 9.58228 25.9122 9.52261 25.8894 9.46693C25.8666 9.41125 25.8329 9.36068 25.7902 9.3183C25.7476 9.27592 25.6968 9.24256 25.6411 9.22018C25.5853 9.1978 25.5256 9.18694 25.4655 9.18811Z" stroke="#434343" stroke-width="0.4" mask="url(#path-2-outside-1_101:3183)"/>
<path d="M1.89258 19.9002C1.89258 19.9002 1.89258 11.9001 10.8926 9.90015C19.8926 7.90015 24.3926 15.9001 24.3926 15.9001" stroke="#434343" stroke-width="2" stroke-linecap="round" stroke-linejoin="round"/>
<path fill-rule="evenodd" clip-rule="evenodd" d="M8.80039 18.1678C8.80088 18.1681 8.80136 18.1684 8.33304 18.9369L8.80136 18.1684C9.22582 18.427 9.36024 18.9808 9.10159 19.4053C8.84434 19.8274 8.29513 19.9627 7.87158 19.7096L7.86445 19.7056C7.85439 19.7 7.8346 19.6894 7.80554 19.6749C7.74733 19.646 7.65261 19.6024 7.52503 19.5547C7.26943 19.4592 6.8863 19.3491 6.40309 19.3064C5.45469 19.2226 4.06093 19.3919 2.42116 20.5563C2.01589 20.8441 1.45406 20.7489 1.16627 20.3436C0.878479 19.9383 0.973717 19.3765 1.37899 19.0887C3.38122 17.6669 5.20395 17.3934 6.56154 17.5134C7.23131 17.5726 7.77355 17.726 8.15506 17.8686C8.34605 17.9399 8.49782 18.0089 8.60647 18.0629C8.66084 18.0899 8.70456 18.1133 8.73716 18.1313C8.75347 18.1404 8.76701 18.1481 8.77772 18.1543L8.79168 18.1626L8.79706 18.1658L8.79934 18.1672L8.80039 18.1678Z" fill="#434343"/>
<path fill-rule="evenodd" clip-rule="evenodd" d="M18.1163 17.7911C17.8046 18.1737 17.2421 18.2342 16.8561 17.9252C16.4681 17.6146 16.4054 17.0482 16.716 16.6601L17.4186 17.2226C16.716 16.6601 16.7163 16.6597 16.7167 16.6592L16.7175 16.6583L16.7192 16.6562L16.7232 16.6512L16.7338 16.6384C16.7419 16.6287 16.7523 16.6164 16.7649 16.6019C16.7902 16.5729 16.8245 16.5348 16.8679 16.4893C16.9547 16.3983 17.0784 16.2773 17.2397 16.1401C17.562 15.8659 18.038 15.5243 18.6729 15.2301C19.9592 14.6341 21.843 14.2593 24.3176 14.9481C24.7964 15.0814 25.0766 15.5776 24.9433 16.0565C24.81 16.5353 24.3138 16.8154 23.8349 16.6822C21.7865 16.112 20.3414 16.4409 19.4296 16.8633C18.9655 17.0784 18.6251 17.3247 18.4059 17.5112C18.2964 17.6043 18.218 17.6817 18.1704 17.7317C18.1466 17.7566 18.1306 17.7746 18.1224 17.784L18.1163 17.7911Z" fill="#434343"/>
<path fill-rule="evenodd" clip-rule="evenodd" d="M17.7037 16.369C17.704 16.3691 17.7044 16.3693 17.4185 17.2227L17.7044 16.3693C18.1757 16.5271 18.4298 17.0372 18.2719 17.5085C18.1142 17.9794 17.6048 18.2335 17.1338 18.0764C17.1338 18.0764 17.1337 18.0764 17.1336 18.0764L17.1333 18.0763L17.1283 18.0747L17.0946 18.0641C17.0627 18.0544 17.0121 18.0394 16.9446 18.0209C16.8093 17.9838 16.6068 17.9328 16.3502 17.881C15.8352 17.7772 15.1115 17.6724 14.2814 17.6685C12.6153 17.6606 10.5959 18.0567 8.93243 19.5973C8.56774 19.935 7.99831 19.9131 7.66057 19.5484C7.32284 19.1838 7.34469 18.6143 7.70937 18.2766C9.82183 16.3203 12.3512 15.8593 14.2899 15.8685C15.2623 15.8731 16.105 15.9954 16.7059 16.1165C17.0072 16.1773 17.2499 16.2382 17.4204 16.2849C17.5058 16.3083 17.5732 16.3282 17.6211 16.3428C17.645 16.3502 17.664 16.3562 17.678 16.3606L17.6951 16.3662L17.7007 16.368L17.7028 16.3687L17.7037 16.369Z" fill="#434343"/>
<path fill-rule="evenodd" clip-rule="evenodd" d="M11.6963 10.6187C12.1343 10.3937 12.3106 9.85745 12.0899 9.41587C11.8677 8.97125 11.3271 8.79096 10.8825 9.01318L11.2849 9.81823C10.8825 9.01318 10.8818 9.0135 10.8812 9.01383L10.8798 9.01453L10.8767 9.01608L10.8696 9.01975L10.8511 9.02941C10.8371 9.0369 10.8194 9.04652 10.7986 9.05837C10.7568 9.08206 10.7019 9.11473 10.636 9.15728C10.5042 9.24234 10.3282 9.36711 10.1255 9.53884C9.71961 9.88274 9.20774 10.4142 8.73178 11.1888C7.77173 12.7512 7.00453 15.2252 7.43718 18.9888C7.49394 19.4826 7.94027 19.8369 8.43407 19.7801C8.92788 19.7234 9.28217 19.277 9.2254 18.7832C8.83276 15.3677 9.54233 13.3078 10.2654 12.1311C10.631 11.5362 11.0123 11.1467 11.2891 10.9122C11.4278 10.7947 11.5406 10.7158 11.6122 10.6695C11.648 10.6464 11.6735 10.6315 11.6867 10.624L11.6963 10.6187Z" fill="#434343"/>
<path fill-rule="evenodd" clip-rule="evenodd" d="M10.4072 9.76495C10.4429 9.26918 10.8738 8.89626 11.3695 8.932L11.3048 9.82967C11.3695 8.932 11.3702 8.93205 11.371 8.9321L11.3725 8.93221L11.3759 8.93247L11.3839 8.93313L11.4047 8.93503C11.4206 8.93658 11.4408 8.93876 11.465 8.94176C11.5133 8.94776 11.5776 8.95708 11.6562 8.97139C11.8132 9 12.0276 9.04866 12.2849 9.13093C12.8 9.29564 13.4867 9.59512 14.2261 10.1367C15.7198 11.2309 17.3478 13.2534 18.262 16.9385C18.3817 17.4209 18.0876 17.909 17.6052 18.0287C17.1228 18.1484 16.6347 17.8543 16.515 17.3719C15.6895 14.0446 14.2757 12.4043 13.1624 11.5888C12.5984 11.1756 12.0904 10.9585 11.7366 10.8454C11.5595 10.7887 11.4209 10.7582 11.3336 10.7422C11.2899 10.7343 11.2592 10.73 11.2431 10.728L11.2307 10.7266C10.7396 10.6861 10.3716 10.2576 10.4072 9.76495Z" fill="#434343"/>
<path fill-rule="evenodd" clip-rule="evenodd" d="M9.73126 6.01469C10.2203 5.92573 10.6888 6.25004 10.7778 6.73907L10.8487 7.1286C10.9376 7.61763 10.6133 8.08619 10.1243 8.17515C9.63526 8.26412 9.1667 7.9398 9.07774 7.45077L9.00688 7.06124C8.91791 6.57221 9.24223 6.10365 9.73126 6.01469Z" fill="#434343"/>
<path fill-rule="evenodd" clip-rule="evenodd" d="M10.7779 6.73938L10.9888 7.90075L9.21772 8.22235L9.00684 7.06097L10.7779 6.73938Z" fill="#434343"/>
<path fill-rule="evenodd" clip-rule="evenodd" d="M13.4718 27.5028L11.8862 18.9391L13.6562 18.6115L15.2417 27.1751L13.4718 27.5028Z" fill="#434343"/>
</svg>
