<svg width="32" height="32" viewBox="0 0 32 32" fill="none" xmlns="http://www.w3.org/2000/svg">
<path d="M16.033 25.9999L17.9688 24.0892C17.76 23.189 16.9453 22.5163 15.9699 22.5163C15.0304 22.5163 14.2408 23.1401 13.9971 23.9901L16.033 25.9999Z" fill="#434343"/>
<path d="M15.9704 17.2558C13.5709 17.2558 11.4454 18.391 10.0969 20.1411L12.0676 22.0859C12.89 20.8148 14.3288 19.9697 15.97 19.9697C17.6441 19.9697 19.1069 20.8496 19.9205 22.1633L21.8975 20.2126C20.5526 18.4216 18.402 17.2558 15.9704 17.2558Z" fill="#434343"/>
<path d="M15.9702 11.6837C12.0127 11.6837 8.47011 13.4279 6.08105 16.1776L8.23235 18.3007C10.065 16.0899 12.8501 14.6781 15.9702 14.6781C19.1224 14.6781 21.9318 16.1198 23.7635 18.3706L25.9176 16.2447C23.5282 13.4562 19.9594 11.6837 15.9702 11.6837Z" fill="#434343"/>
<path d="M4.47446 14.5921C7.27732 11.4395 11.3868 9.44683 15.9704 9.44683C20.586 9.44683 24.7206 11.4681 27.5248 14.6589L30 12.2161C26.5592 8.40352 21.5506 6 15.9707 6C10.4229 6 5.43873 8.37496 2 12.1494L4.47446 14.5921Z" fill="#434343"/>
</svg>
